G04 #@! TF.FileFunction,Soldermask,Top*
%FSLAX46Y46*%
G04 Gerber Fmt 4.6, Leading zero omitted, Abs format (unit mm)*
G04 Created by KiCad (PCBNEW 0.201503210816+5526~22~ubuntu14.10.1-product) date Sun 22 Mar 2015 03:55:30 PM EDT*
%MOMM*%
G01*
G04 APERTURE LIST*
%ADD10C,0.100000*%
%ADD11R,2.000000X1.600000*%
%ADD12R,1.198880X1.198880*%
%ADD13R,1.500000X1.300000*%
%ADD14R,1.300000X1.500000*%
%ADD15R,1.400000X0.300000*%
%ADD16R,2.032000X2.032000*%
%ADD17O,2.032000X2.032000*%
%ADD18R,0.400000X1.350000*%
%ADD19R,1.600000X1.400000*%
%ADD20R,1.900000X1.900000*%
%ADD21C,1.600000*%
%ADD22R,1.500000X1.500000*%
%ADD23O,1.500000X1.500000*%
G04 APERTURE END LIST*
D10*
D11*
X156724600Y-105628440D03*
X160724600Y-105628440D03*
X181730400Y-105257600D03*
X177730400Y-105257600D03*
D12*
X186723020Y-118364000D03*
X184624980Y-118364000D03*
X150017480Y-114998500D03*
X152115520Y-114998500D03*
X150017480Y-112141000D03*
X152115520Y-112141000D03*
D13*
X157306000Y-112141000D03*
X154606000Y-112141000D03*
X157369500Y-114935000D03*
X154669500Y-114935000D03*
D14*
X180975000Y-115617000D03*
X180975000Y-118317000D03*
X178562000Y-115642400D03*
X178562000Y-118342400D03*
D13*
X178007000Y-110998000D03*
X175307000Y-110998000D03*
X172182800Y-114808000D03*
X174882800Y-114808000D03*
D14*
X148534120Y-106836200D03*
X148534120Y-104136200D03*
X150962360Y-106770160D03*
X150962360Y-104070160D03*
X153339800Y-106836200D03*
X153339800Y-104136200D03*
D15*
X167726000Y-109998000D03*
X167726000Y-110498000D03*
X167726000Y-110998000D03*
X167726000Y-111498000D03*
X167726000Y-111998000D03*
X172126000Y-111998000D03*
X172126000Y-111498000D03*
X172126000Y-110998000D03*
X172126000Y-110498000D03*
X172126000Y-109998000D03*
D16*
X175006000Y-117703600D03*
D17*
X172466000Y-117703600D03*
D18*
X152568760Y-101318440D03*
X151918760Y-101318440D03*
X151268760Y-101318440D03*
X153218760Y-101318440D03*
X153868760Y-101318440D03*
D19*
X155768760Y-101093440D03*
X149368760Y-101093440D03*
D20*
X153768760Y-98643440D03*
X151368760Y-98643440D03*
D21*
X155868760Y-98643440D03*
X149268760Y-98643440D03*
D22*
X180594000Y-98806000D03*
D23*
X178594000Y-98806000D03*
M02*
