G04 #@! TF.FileFunction,Copper,L1,Top,Signal*
%FSLAX46Y46*%
G04 Gerber Fmt 4.6, Leading zero omitted, Abs format (unit mm)*
G04 Created by KiCad (PCBNEW 0.201503210816+5526~22~ubuntu14.10.1-product) date Mon 23 Mar 2015 01:39:21 PM EDT*
%MOMM*%
G01*
G04 APERTURE LIST*
%ADD10C,0.100000*%
%ADD11R,2.000000X1.600000*%
%ADD12R,1.198880X1.198880*%
%ADD13R,1.500000X1.300000*%
%ADD14R,1.300000X1.500000*%
%ADD15R,1.400000X0.300000*%
%ADD16R,2.032000X2.032000*%
%ADD17O,2.032000X2.032000*%
%ADD18R,0.400000X1.350000*%
%ADD19R,1.600000X1.400000*%
%ADD20R,1.900000X1.900000*%
%ADD21C,1.600000*%
%ADD22R,1.500000X1.500000*%
%ADD23O,1.500000X1.500000*%
%ADD24C,1.998980*%
%ADD25C,0.685800*%
%ADD26C,0.152400*%
%ADD27C,0.254000*%
%ADD28C,0.609600*%
G04 APERTURE END LIST*
D10*
D11*
X156724600Y-105628440D03*
X160724600Y-105628440D03*
X181730400Y-105257600D03*
X177730400Y-105257600D03*
D12*
X186723020Y-118364000D03*
X184624980Y-118364000D03*
X150017480Y-114998500D03*
X152115520Y-114998500D03*
X150017480Y-112141000D03*
X152115520Y-112141000D03*
D13*
X157306000Y-112141000D03*
X154606000Y-112141000D03*
X157369500Y-114935000D03*
X154669500Y-114935000D03*
D14*
X180975000Y-115617000D03*
X180975000Y-118317000D03*
X178562000Y-115642400D03*
X178562000Y-118342400D03*
D13*
X172182800Y-114808000D03*
X174882800Y-114808000D03*
D14*
X148534120Y-106836200D03*
X148534120Y-104136200D03*
X150962360Y-106770160D03*
X150962360Y-104070160D03*
X153339800Y-106836200D03*
X153339800Y-104136200D03*
D15*
X167726000Y-109998000D03*
X167726000Y-110498000D03*
X167726000Y-110998000D03*
X167726000Y-111498000D03*
X167726000Y-111998000D03*
X172126000Y-111998000D03*
X172126000Y-111498000D03*
X172126000Y-110998000D03*
X172126000Y-110498000D03*
X172126000Y-109998000D03*
D16*
X175006000Y-117703600D03*
D17*
X172466000Y-117703600D03*
D18*
X152568760Y-101318440D03*
X151918760Y-101318440D03*
X151268760Y-101318440D03*
X153218760Y-101318440D03*
X153868760Y-101318440D03*
D19*
X155768760Y-101093440D03*
X149368760Y-101093440D03*
D20*
X153768760Y-98643440D03*
X151368760Y-98643440D03*
D21*
X155868760Y-98643440D03*
X149268760Y-98643440D03*
D22*
X180594000Y-98806000D03*
D23*
X178594000Y-98806000D03*
D24*
X173191898Y-105373898D03*
X180376102Y-112558102D03*
D25*
X178435000Y-100965000D03*
X178435000Y-102870000D03*
X160655000Y-99695000D03*
X160655000Y-97790000D03*
X163195000Y-97790000D03*
X163195000Y-99695000D03*
X163195000Y-101600000D03*
X163195000Y-103505000D03*
X163195000Y-105410000D03*
X165735000Y-105410000D03*
X165735000Y-103505000D03*
X165735000Y-101600000D03*
X165735000Y-99695000D03*
X165735000Y-97790000D03*
X168275000Y-97790000D03*
X168275000Y-99695000D03*
X168275000Y-101600000D03*
X168275000Y-103505000D03*
X168275000Y-105410000D03*
X170815000Y-105410000D03*
X170815000Y-103505000D03*
X170815000Y-101600000D03*
X170815000Y-99695000D03*
X170815000Y-97790000D03*
X173355000Y-97790000D03*
X173355000Y-99695000D03*
X173355000Y-101600000D03*
X173355000Y-103505000D03*
X175895000Y-105410000D03*
X175895000Y-103505000D03*
X175895000Y-101600000D03*
X175895000Y-99695000D03*
X175895000Y-97790000D03*
X160655000Y-103505000D03*
X160655000Y-101600000D03*
X170180000Y-106680000D03*
X170180000Y-108585000D03*
X170180000Y-110490000D03*
X170180000Y-112395000D03*
X170180000Y-114300000D03*
X167640000Y-114300000D03*
X165100000Y-114300000D03*
X160020000Y-116205000D03*
X162560000Y-116205000D03*
X165735000Y-116205000D03*
X168910000Y-116205000D03*
X170180000Y-118110000D03*
X167640000Y-118110000D03*
X164465000Y-118110000D03*
X161290000Y-118110000D03*
X160020000Y-120015000D03*
X163195000Y-120015000D03*
X166370000Y-120015000D03*
X169545000Y-120015000D03*
X173355000Y-120015000D03*
X176530000Y-120015000D03*
X177165000Y-116840000D03*
X177165000Y-114935000D03*
X175895000Y-113030000D03*
X156845000Y-107950000D03*
X159385000Y-107950000D03*
X161925000Y-107950000D03*
X164465000Y-107950000D03*
X167005000Y-107950000D03*
X164465000Y-109855000D03*
X161925000Y-109855000D03*
X159385000Y-109855000D03*
X156845000Y-109855000D03*
X153670000Y-109855000D03*
X151130000Y-109855000D03*
X148590000Y-109855000D03*
X146050000Y-109855000D03*
X146050000Y-107950000D03*
X146050000Y-106045000D03*
X146050000Y-104140000D03*
X154305000Y-108585000D03*
X152400000Y-108585000D03*
X149860000Y-108585000D03*
X147955000Y-108585000D03*
X157480000Y-103505000D03*
X155575000Y-103505000D03*
X184150000Y-102235000D03*
X183515000Y-100330000D03*
X185420000Y-100330000D03*
X187960000Y-100330000D03*
X187960000Y-98425000D03*
X185420000Y-98425000D03*
X183515000Y-98425000D03*
X181610000Y-102235000D03*
X184785000Y-109855000D03*
X182245000Y-109855000D03*
X180340000Y-109220000D03*
X177165000Y-109220000D03*
X174625000Y-109220000D03*
X173355000Y-107950000D03*
X175895000Y-107950000D03*
X178435000Y-107950000D03*
X180975000Y-107950000D03*
X183515000Y-107950000D03*
X186055000Y-107950000D03*
X188595000Y-107950000D03*
X188595000Y-106045000D03*
X186690000Y-106045000D03*
X184150000Y-106045000D03*
X183515000Y-104140000D03*
X185420000Y-104140000D03*
X187960000Y-104140000D03*
X186690000Y-102235000D03*
X187960000Y-109855000D03*
D26*
X178460400Y-100939600D02*
X178435000Y-100965000D01*
X178460400Y-98450400D02*
X178460400Y-100939600D01*
D27*
X151268760Y-101318440D02*
X151268760Y-98743440D01*
X151268760Y-98743440D02*
X151368760Y-98643440D01*
D28*
X153768760Y-98643440D02*
X153768760Y-99093440D01*
X153768760Y-99093440D02*
X155768760Y-101093440D01*
X151368760Y-98643440D02*
X153768760Y-98643440D01*
X149368760Y-101093440D02*
X149368760Y-100643440D01*
X149368760Y-100643440D02*
X151368760Y-98643440D01*
D26*
X160655000Y-101600000D02*
X160655000Y-99695000D01*
X160655000Y-97790000D02*
X163195000Y-97790000D01*
X163195000Y-99695000D02*
X163195000Y-101600000D01*
X163195000Y-103505000D02*
X163195000Y-105410000D01*
X165735000Y-105410000D02*
X165735000Y-103505000D01*
X165735000Y-101600000D02*
X165735000Y-99695000D01*
X165735000Y-97790000D02*
X168275000Y-97790000D01*
X168275000Y-99695000D02*
X168275000Y-101600000D01*
X168275000Y-103505000D02*
X168275000Y-105410000D01*
X170815000Y-105410000D02*
X170815000Y-103505000D01*
X170815000Y-101600000D02*
X170815000Y-99695000D01*
X170815000Y-97790000D02*
X173355000Y-97790000D01*
X173355000Y-99695000D02*
X173355000Y-101600000D01*
X173355000Y-103505000D02*
X173355000Y-105410000D01*
X175895000Y-105410000D02*
X175895000Y-103505000D01*
X175895000Y-101600000D02*
X175895000Y-99695000D01*
X160724600Y-105628440D02*
X160724600Y-103574600D01*
X160724600Y-103574600D02*
X160655000Y-103505000D01*
X170815000Y-106045000D02*
X170180000Y-106680000D01*
X170180000Y-108585000D02*
X170180000Y-110490000D01*
X170180000Y-112395000D02*
X170180000Y-114300000D01*
X167640000Y-114300000D02*
X165100000Y-114300000D01*
X160020000Y-116205000D02*
X162560000Y-116205000D01*
X165735000Y-116205000D02*
X168910000Y-116205000D01*
X170180000Y-118110000D02*
X167640000Y-118110000D01*
X164465000Y-118110000D02*
X161290000Y-118110000D01*
X160020000Y-120015000D02*
X163195000Y-120015000D01*
X166370000Y-120015000D02*
X169545000Y-120015000D01*
X173355000Y-120015000D02*
X176530000Y-120015000D01*
X177165000Y-116840000D02*
X177165000Y-114935000D01*
X170815000Y-105410000D02*
X170815000Y-106045000D01*
D28*
X159764560Y-101093440D02*
X159766000Y-101092000D01*
X155768760Y-101093440D02*
X159764560Y-101093440D01*
D27*
X151844080Y-103088440D02*
X151844080Y-103188440D01*
X151844080Y-103188440D02*
X150962360Y-104070160D01*
X152059640Y-102778560D02*
X152059640Y-102872880D01*
X152059640Y-102872880D02*
X151844080Y-103088440D01*
X152568760Y-102269440D02*
X152059640Y-102778560D01*
X152568760Y-101318440D02*
X152568760Y-102269440D01*
X148859240Y-102626160D02*
X148534120Y-102951280D01*
X148534120Y-102951280D02*
X148534120Y-104136200D01*
X151540040Y-102626160D02*
X148859240Y-102626160D01*
X151918760Y-101318440D02*
X151918760Y-102247440D01*
X151918760Y-102247440D02*
X151540040Y-102626160D01*
X153218760Y-101318440D02*
X153218760Y-104015160D01*
X153218760Y-104015160D02*
X153339800Y-104136200D01*
D28*
X184577980Y-118317000D02*
X184624980Y-118364000D01*
X180975000Y-118317000D02*
X184577980Y-118317000D01*
D26*
X152179020Y-114935000D02*
X152115520Y-114998500D01*
D27*
X154669500Y-114935000D02*
X152179020Y-114935000D01*
X152115520Y-112141000D02*
X154606000Y-112141000D01*
D26*
X175644800Y-118342400D02*
X175006000Y-117703600D01*
D27*
X178562000Y-118342400D02*
X175644800Y-118342400D01*
X163449000Y-112141000D02*
X164592000Y-110998000D01*
X164592000Y-110998000D02*
X167726000Y-110998000D01*
X157306000Y-112141000D02*
X163449000Y-112141000D01*
X164981000Y-111498000D02*
X161544000Y-114935000D01*
X161544000Y-114935000D02*
X157369500Y-114935000D01*
X167726000Y-111498000D02*
X164981000Y-111498000D01*
D26*
X178672500Y-115531900D02*
X178562000Y-115642400D01*
D27*
X178562000Y-113792000D02*
X177038000Y-112268000D01*
X177038000Y-112268000D02*
X174371000Y-112268000D01*
X174371000Y-112268000D02*
X173601000Y-111498000D01*
X178562000Y-115642400D02*
X178562000Y-113792000D01*
D26*
X178587400Y-115617000D02*
X178562000Y-115642400D01*
D28*
X178587400Y-115617000D02*
X178562000Y-115642400D01*
X180975000Y-115617000D02*
X178587400Y-115617000D01*
D27*
X173601000Y-111498000D02*
X172126000Y-111498000D01*
X175260000Y-110998000D02*
X178816000Y-110998000D01*
X178816000Y-110998000D02*
X180376102Y-112558102D01*
X172126000Y-110998000D02*
X175260000Y-110998000D01*
X175260000Y-110998000D02*
X175307000Y-110998000D01*
D26*
X174879000Y-114804200D02*
X174882800Y-114808000D01*
D27*
X173212000Y-111998000D02*
X174879000Y-113665000D01*
X174879000Y-113665000D02*
X174879000Y-114804200D01*
X172126000Y-111998000D02*
X173212000Y-111998000D01*
X154609800Y-101605480D02*
X154609800Y-102971600D01*
X153868760Y-101318440D02*
X154322760Y-101318440D01*
X154322760Y-101318440D02*
X154609800Y-101605480D01*
X154198320Y-101945440D02*
X154198320Y-102743000D01*
X153868760Y-101615880D02*
X154198320Y-101945440D01*
X153868760Y-101318440D02*
X153868760Y-101615880D01*
X153868760Y-102823640D02*
X153868760Y-101318440D01*
D28*
X154051000Y-120904000D02*
X150017480Y-116870480D01*
X150017480Y-116870480D02*
X150017480Y-114744500D01*
X150017480Y-114744500D02*
X150017480Y-112141000D01*
X150017480Y-110078520D02*
X150241000Y-109855000D01*
X150017480Y-112141000D02*
X150017480Y-110078520D01*
D26*
X156724600Y-105628440D02*
X156724600Y-107829600D01*
X156724600Y-107829600D02*
X156845000Y-107950000D01*
X159385000Y-107950000D02*
X161925000Y-107950000D01*
X164465000Y-107950000D02*
X167005000Y-107950000D01*
X164465000Y-109855000D02*
X161925000Y-109855000D01*
X159385000Y-109855000D02*
X156845000Y-109855000D01*
X153670000Y-109855000D02*
X151130000Y-109855000D01*
X148590000Y-109855000D02*
X146050000Y-109855000D01*
X146050000Y-107950000D02*
X146050000Y-106045000D01*
X156845000Y-107950000D02*
X154940000Y-107950000D01*
X154940000Y-107950000D02*
X154305000Y-108585000D01*
X152400000Y-108585000D02*
X150495000Y-108585000D01*
X150495000Y-108585000D02*
X149860000Y-108585000D01*
X156724600Y-105628440D02*
X156724600Y-104260400D01*
X156724600Y-104260400D02*
X157480000Y-103505000D01*
D28*
X186723020Y-119346980D02*
X185166000Y-120904000D01*
X185166000Y-120904000D02*
X154051000Y-120904000D01*
X186723020Y-118364000D02*
X186723020Y-119346980D01*
X150896320Y-106836200D02*
X150962360Y-106770160D01*
X153273760Y-106770160D02*
X153339800Y-106836200D01*
D26*
X183489600Y-98450400D02*
X181000400Y-98450400D01*
X182245000Y-101600000D02*
X181610000Y-102235000D01*
X183515000Y-100330000D02*
X182245000Y-101600000D01*
X187960000Y-100330000D02*
X185420000Y-100330000D01*
X185420000Y-98425000D02*
X187960000Y-98425000D01*
X183489600Y-98450400D02*
X183515000Y-98425000D01*
X182245000Y-109855000D02*
X184785000Y-109855000D01*
X177165000Y-109220000D02*
X180340000Y-109220000D01*
X173355000Y-107950000D02*
X174625000Y-109220000D01*
X178435000Y-107950000D02*
X175895000Y-107950000D01*
X183515000Y-107950000D02*
X180975000Y-107950000D01*
X188595000Y-107950000D02*
X186055000Y-107950000D01*
X186690000Y-106045000D02*
X188595000Y-106045000D01*
X184150000Y-104775000D02*
X184150000Y-106045000D01*
X183515000Y-104140000D02*
X184150000Y-104775000D01*
X187960000Y-104140000D02*
X185420000Y-104140000D01*
X184150000Y-102235000D02*
X186690000Y-102235000D01*
G36*
X179602294Y-120360743D02*
X179445079Y-120361360D01*
X179445079Y-119092400D01*
X179445079Y-117592400D01*
X179428167Y-117505236D01*
X179377842Y-117428626D01*
X179301871Y-117377344D01*
X179212000Y-117359321D01*
X177912000Y-117359321D01*
X177824836Y-117376233D01*
X177748226Y-117426558D01*
X177696944Y-117502529D01*
X177678921Y-117592400D01*
X177678921Y-117986800D01*
X176255079Y-117986800D01*
X176255079Y-116687600D01*
X176238167Y-116600436D01*
X176187842Y-116523826D01*
X176111871Y-116472544D01*
X176022000Y-116454521D01*
X173990000Y-116454521D01*
X173902836Y-116471433D01*
X173826226Y-116521758D01*
X173774944Y-116597729D01*
X173756921Y-116687600D01*
X173756921Y-117370691D01*
X173586467Y-116957398D01*
X173263000Y-116632942D01*
X173263000Y-115523681D01*
X173263000Y-115392319D01*
X173263000Y-114941350D01*
X173263000Y-114674650D01*
X173263000Y-114223681D01*
X173263000Y-114092319D01*
X173212730Y-113970957D01*
X173119843Y-113878070D01*
X172998481Y-113827800D01*
X172316150Y-113827800D01*
X172233600Y-113910350D01*
X172233600Y-114757200D01*
X173180450Y-114757200D01*
X173263000Y-114674650D01*
X173263000Y-114941350D01*
X173180450Y-114858800D01*
X172233600Y-114858800D01*
X172233600Y-115705650D01*
X172316150Y-115788200D01*
X172998481Y-115788200D01*
X173119843Y-115737930D01*
X173212730Y-115645043D01*
X173263000Y-115523681D01*
X173263000Y-116632942D01*
X173215617Y-116585415D01*
X172730645Y-116383666D01*
X172726617Y-116382868D01*
X172516800Y-116440972D01*
X172516800Y-117652800D01*
X172536800Y-117652800D01*
X172536800Y-117754400D01*
X172516800Y-117754400D01*
X172516800Y-118966228D01*
X172726617Y-119024332D01*
X172730645Y-119023534D01*
X173215617Y-118821785D01*
X173586467Y-118449802D01*
X173756921Y-118036508D01*
X173756921Y-118719600D01*
X173773833Y-118806764D01*
X173824158Y-118883374D01*
X173900129Y-118934656D01*
X173990000Y-118952679D01*
X176022000Y-118952679D01*
X176109164Y-118935767D01*
X176185774Y-118885442D01*
X176237056Y-118809471D01*
X176255079Y-118719600D01*
X176255079Y-118698000D01*
X177678921Y-118698000D01*
X177678921Y-119092400D01*
X177695833Y-119179564D01*
X177746158Y-119256174D01*
X177822129Y-119307456D01*
X177912000Y-119325479D01*
X179212000Y-119325479D01*
X179299164Y-119308567D01*
X179375774Y-119258242D01*
X179427056Y-119182271D01*
X179445079Y-119092400D01*
X179445079Y-120361360D01*
X177094313Y-120370600D01*
X172415200Y-120370600D01*
X172415200Y-118966228D01*
X172415200Y-117754400D01*
X172415200Y-117652800D01*
X172415200Y-116440972D01*
X172205383Y-116382868D01*
X172201355Y-116383666D01*
X172132000Y-116412517D01*
X172132000Y-115705650D01*
X172132000Y-114858800D01*
X172132000Y-114757200D01*
X172132000Y-113910350D01*
X172049450Y-113827800D01*
X171367119Y-113827800D01*
X171245757Y-113878070D01*
X171152870Y-113970957D01*
X171102600Y-114092319D01*
X171102600Y-114223681D01*
X171102600Y-114674650D01*
X171185150Y-114757200D01*
X172132000Y-114757200D01*
X172132000Y-114858800D01*
X171185150Y-114858800D01*
X171102600Y-114941350D01*
X171102600Y-115392319D01*
X171102600Y-115523681D01*
X171152870Y-115645043D01*
X171245757Y-115737930D01*
X171367119Y-115788200D01*
X172049450Y-115788200D01*
X172132000Y-115705650D01*
X172132000Y-116412517D01*
X171716383Y-116585415D01*
X171345533Y-116957398D01*
X171145264Y-117442983D01*
X171203305Y-117652800D01*
X172415200Y-117652800D01*
X172415200Y-117754400D01*
X171203305Y-117754400D01*
X171145264Y-117964217D01*
X171345533Y-118449802D01*
X171716383Y-118821785D01*
X172201355Y-119023534D01*
X172205383Y-119024332D01*
X172415200Y-118966228D01*
X172415200Y-120370600D01*
X168756200Y-120370600D01*
X168756200Y-112213681D01*
X168756200Y-112131350D01*
X168673650Y-112048800D01*
X167776800Y-112048800D01*
X167776800Y-112395650D01*
X167859350Y-112478200D01*
X168491681Y-112478200D01*
X168613043Y-112427930D01*
X168705930Y-112335043D01*
X168756200Y-112213681D01*
X168756200Y-120370600D01*
X167675200Y-120370600D01*
X167675200Y-112395650D01*
X167675200Y-112048800D01*
X166778350Y-112048800D01*
X166695800Y-112131350D01*
X166695800Y-112213681D01*
X166746070Y-112335043D01*
X166838957Y-112427930D01*
X166960319Y-112478200D01*
X167592650Y-112478200D01*
X167675200Y-112395650D01*
X167675200Y-120370600D01*
X159075120Y-120370600D01*
X159075120Y-115290600D01*
X161544000Y-115290600D01*
X161680082Y-115263532D01*
X161680083Y-115263532D01*
X161795447Y-115186447D01*
X165128294Y-111853600D01*
X166695800Y-111853600D01*
X166695800Y-111864650D01*
X166778350Y-111947200D01*
X167675200Y-111947200D01*
X167675200Y-111927200D01*
X167776800Y-111927200D01*
X167776800Y-111947200D01*
X168673650Y-111947200D01*
X168756200Y-111864650D01*
X168756200Y-111782319D01*
X168752098Y-111772417D01*
X168987148Y-111772839D01*
X168921765Y-106476800D01*
X162054800Y-106476800D01*
X162054800Y-106362759D01*
X162054800Y-105761790D01*
X162054800Y-105495090D01*
X162054800Y-104894121D01*
X162054800Y-104762759D01*
X162004530Y-104641397D01*
X161911643Y-104548510D01*
X161790281Y-104498240D01*
X160857950Y-104498240D01*
X160775400Y-104580790D01*
X160775400Y-105577640D01*
X161972250Y-105577640D01*
X162054800Y-105495090D01*
X162054800Y-105761790D01*
X161972250Y-105679240D01*
X160775400Y-105679240D01*
X160775400Y-105699240D01*
X160673800Y-105699240D01*
X160673800Y-105679240D01*
X160673800Y-105577640D01*
X160673800Y-104580790D01*
X160591250Y-104498240D01*
X159658919Y-104498240D01*
X159537557Y-104548510D01*
X159444670Y-104641397D01*
X159394400Y-104762759D01*
X159394400Y-104894121D01*
X159394400Y-105495090D01*
X159476950Y-105577640D01*
X160673800Y-105577640D01*
X160673800Y-105679240D01*
X159476950Y-105679240D01*
X159394400Y-105761790D01*
X159394400Y-106362759D01*
X159394400Y-106476800D01*
X159143700Y-106476800D01*
X159143700Y-99822000D01*
X159143700Y-99568000D01*
X159143700Y-97294700D01*
X179311300Y-97294700D01*
X179311300Y-98025458D01*
X179187129Y-97903203D01*
X178812968Y-97748226D01*
X178644800Y-97809644D01*
X178644800Y-98755200D01*
X178664800Y-98755200D01*
X178664800Y-98856800D01*
X178644800Y-98856800D01*
X178644800Y-99802356D01*
X178812968Y-99863774D01*
X179187129Y-99708797D01*
X179311300Y-99586541D01*
X179311300Y-106476800D01*
X179060600Y-106476800D01*
X179060600Y-106123281D01*
X179060600Y-105991919D01*
X179060600Y-105390950D01*
X179060600Y-105124250D01*
X179060600Y-104523281D01*
X179060600Y-104391919D01*
X179010330Y-104270557D01*
X178917443Y-104177670D01*
X178796081Y-104127400D01*
X178543200Y-104127400D01*
X178543200Y-99802356D01*
X178543200Y-98856800D01*
X178543200Y-98755200D01*
X178543200Y-97809644D01*
X178375032Y-97748226D01*
X178000871Y-97903203D01*
X177700535Y-98198905D01*
X177536221Y-98587031D01*
X177597540Y-98755200D01*
X178543200Y-98755200D01*
X178543200Y-98856800D01*
X177597540Y-98856800D01*
X177536221Y-99024969D01*
X177700535Y-99413095D01*
X178000871Y-99708797D01*
X178375032Y-99863774D01*
X178543200Y-99802356D01*
X178543200Y-104127400D01*
X177863750Y-104127400D01*
X177781200Y-104209950D01*
X177781200Y-105206800D01*
X178978050Y-105206800D01*
X179060600Y-105124250D01*
X179060600Y-105390950D01*
X178978050Y-105308400D01*
X177781200Y-105308400D01*
X177781200Y-106305250D01*
X177863750Y-106387800D01*
X178796081Y-106387800D01*
X178917443Y-106337530D01*
X179010330Y-106244643D01*
X179060600Y-106123281D01*
X179060600Y-106476800D01*
X177679600Y-106476800D01*
X177679600Y-106305250D01*
X177679600Y-105308400D01*
X177679600Y-105206800D01*
X177679600Y-104209950D01*
X177597050Y-104127400D01*
X176664719Y-104127400D01*
X176543357Y-104177670D01*
X176450470Y-104270557D01*
X176400200Y-104391919D01*
X176400200Y-104523281D01*
X176400200Y-105124250D01*
X176482750Y-105206800D01*
X177679600Y-105206800D01*
X177679600Y-105308400D01*
X176482750Y-105308400D01*
X176400200Y-105390950D01*
X176400200Y-105991919D01*
X176400200Y-106123281D01*
X176450470Y-106244643D01*
X176543357Y-106337530D01*
X176664719Y-106387800D01*
X177597050Y-106387800D01*
X177679600Y-106305250D01*
X177679600Y-106476800D01*
X173968880Y-106476800D01*
X174317804Y-106129124D01*
X174521112Y-105640770D01*
X174522059Y-105636008D01*
X174522059Y-105111788D01*
X174320501Y-104622709D01*
X173947124Y-104247992D01*
X173458770Y-104044684D01*
X173454008Y-104043737D01*
X173242698Y-104101722D01*
X173242698Y-105323098D01*
X174464074Y-105323098D01*
X174522059Y-105111788D01*
X174522059Y-105636008D01*
X174464074Y-105424698D01*
X173242698Y-105424698D01*
X173242698Y-106476800D01*
X173141098Y-106476800D01*
X173141098Y-105424698D01*
X173141098Y-105323098D01*
X173141098Y-104101722D01*
X172929788Y-104043737D01*
X172440709Y-104245295D01*
X172065992Y-104618672D01*
X171862684Y-105107026D01*
X171861737Y-105111788D01*
X171919722Y-105323098D01*
X173141098Y-105323098D01*
X173141098Y-105424698D01*
X171919722Y-105424698D01*
X171861737Y-105636008D01*
X172063295Y-106125087D01*
X172413750Y-106476800D01*
X170930224Y-106476800D01*
X170864854Y-111837093D01*
X171195872Y-111833284D01*
X171192921Y-111848000D01*
X171192921Y-112148000D01*
X171209833Y-112235164D01*
X171260158Y-112311774D01*
X171336129Y-112363056D01*
X171426000Y-112381079D01*
X172826000Y-112381079D01*
X172913164Y-112364167D01*
X172929250Y-112353600D01*
X173064706Y-112353600D01*
X174523400Y-113812294D01*
X174523400Y-113924921D01*
X174132800Y-113924921D01*
X174045636Y-113941833D01*
X173969026Y-113992158D01*
X173917744Y-114068129D01*
X173899721Y-114158000D01*
X173899721Y-115458000D01*
X173916633Y-115545164D01*
X173966958Y-115621774D01*
X174042929Y-115673056D01*
X174132800Y-115691079D01*
X175632800Y-115691079D01*
X175719964Y-115674167D01*
X175796574Y-115623842D01*
X175847856Y-115547871D01*
X175865879Y-115458000D01*
X175865879Y-114158000D01*
X175848967Y-114070836D01*
X175798642Y-113994226D01*
X175722671Y-113942944D01*
X175632800Y-113924921D01*
X175234600Y-113924921D01*
X175234600Y-113665000D01*
X175207532Y-113528918D01*
X175207532Y-113528917D01*
X175130447Y-113413553D01*
X174332919Y-112616025D01*
X174371000Y-112623600D01*
X176890705Y-112623600D01*
X178206400Y-113939294D01*
X178206400Y-114659321D01*
X177912000Y-114659321D01*
X177824836Y-114676233D01*
X177748226Y-114726558D01*
X177696944Y-114802529D01*
X177678921Y-114892400D01*
X177678921Y-116392400D01*
X177695833Y-116479564D01*
X177746158Y-116556174D01*
X177822129Y-116607456D01*
X177912000Y-116625479D01*
X179212000Y-116625479D01*
X179299164Y-116608567D01*
X179375774Y-116558242D01*
X179427056Y-116482271D01*
X179445079Y-116392400D01*
X179445079Y-116150400D01*
X179541362Y-116150400D01*
X179602294Y-120360743D01*
X179602294Y-120360743D01*
G37*
X179602294Y-120360743D02*
X179445079Y-120361360D01*
X179445079Y-119092400D01*
X179445079Y-117592400D01*
X179428167Y-117505236D01*
X179377842Y-117428626D01*
X179301871Y-117377344D01*
X179212000Y-117359321D01*
X177912000Y-117359321D01*
X177824836Y-117376233D01*
X177748226Y-117426558D01*
X177696944Y-117502529D01*
X177678921Y-117592400D01*
X177678921Y-117986800D01*
X176255079Y-117986800D01*
X176255079Y-116687600D01*
X176238167Y-116600436D01*
X176187842Y-116523826D01*
X176111871Y-116472544D01*
X176022000Y-116454521D01*
X173990000Y-116454521D01*
X173902836Y-116471433D01*
X173826226Y-116521758D01*
X173774944Y-116597729D01*
X173756921Y-116687600D01*
X173756921Y-117370691D01*
X173586467Y-116957398D01*
X173263000Y-116632942D01*
X173263000Y-115523681D01*
X173263000Y-115392319D01*
X173263000Y-114941350D01*
X173263000Y-114674650D01*
X173263000Y-114223681D01*
X173263000Y-114092319D01*
X173212730Y-113970957D01*
X173119843Y-113878070D01*
X172998481Y-113827800D01*
X172316150Y-113827800D01*
X172233600Y-113910350D01*
X172233600Y-114757200D01*
X173180450Y-114757200D01*
X173263000Y-114674650D01*
X173263000Y-114941350D01*
X173180450Y-114858800D01*
X172233600Y-114858800D01*
X172233600Y-115705650D01*
X172316150Y-115788200D01*
X172998481Y-115788200D01*
X173119843Y-115737930D01*
X173212730Y-115645043D01*
X173263000Y-115523681D01*
X173263000Y-116632942D01*
X173215617Y-116585415D01*
X172730645Y-116383666D01*
X172726617Y-116382868D01*
X172516800Y-116440972D01*
X172516800Y-117652800D01*
X172536800Y-117652800D01*
X172536800Y-117754400D01*
X172516800Y-117754400D01*
X172516800Y-118966228D01*
X172726617Y-119024332D01*
X172730645Y-119023534D01*
X173215617Y-118821785D01*
X173586467Y-118449802D01*
X173756921Y-118036508D01*
X173756921Y-118719600D01*
X173773833Y-118806764D01*
X173824158Y-118883374D01*
X173900129Y-118934656D01*
X173990000Y-118952679D01*
X176022000Y-118952679D01*
X176109164Y-118935767D01*
X176185774Y-118885442D01*
X176237056Y-118809471D01*
X176255079Y-118719600D01*
X176255079Y-118698000D01*
X177678921Y-118698000D01*
X177678921Y-119092400D01*
X177695833Y-119179564D01*
X177746158Y-119256174D01*
X177822129Y-119307456D01*
X177912000Y-119325479D01*
X179212000Y-119325479D01*
X179299164Y-119308567D01*
X179375774Y-119258242D01*
X179427056Y-119182271D01*
X179445079Y-119092400D01*
X179445079Y-120361360D01*
X177094313Y-120370600D01*
X172415200Y-120370600D01*
X172415200Y-118966228D01*
X172415200Y-117754400D01*
X172415200Y-117652800D01*
X172415200Y-116440972D01*
X172205383Y-116382868D01*
X172201355Y-116383666D01*
X172132000Y-116412517D01*
X172132000Y-115705650D01*
X172132000Y-114858800D01*
X172132000Y-114757200D01*
X172132000Y-113910350D01*
X172049450Y-113827800D01*
X171367119Y-113827800D01*
X171245757Y-113878070D01*
X171152870Y-113970957D01*
X171102600Y-114092319D01*
X171102600Y-114223681D01*
X171102600Y-114674650D01*
X171185150Y-114757200D01*
X172132000Y-114757200D01*
X172132000Y-114858800D01*
X171185150Y-114858800D01*
X171102600Y-114941350D01*
X171102600Y-115392319D01*
X171102600Y-115523681D01*
X171152870Y-115645043D01*
X171245757Y-115737930D01*
X171367119Y-115788200D01*
X172049450Y-115788200D01*
X172132000Y-115705650D01*
X172132000Y-116412517D01*
X171716383Y-116585415D01*
X171345533Y-116957398D01*
X171145264Y-117442983D01*
X171203305Y-117652800D01*
X172415200Y-117652800D01*
X172415200Y-117754400D01*
X171203305Y-117754400D01*
X171145264Y-117964217D01*
X171345533Y-118449802D01*
X171716383Y-118821785D01*
X172201355Y-119023534D01*
X172205383Y-119024332D01*
X172415200Y-118966228D01*
X172415200Y-120370600D01*
X168756200Y-120370600D01*
X168756200Y-112213681D01*
X168756200Y-112131350D01*
X168673650Y-112048800D01*
X167776800Y-112048800D01*
X167776800Y-112395650D01*
X167859350Y-112478200D01*
X168491681Y-112478200D01*
X168613043Y-112427930D01*
X168705930Y-112335043D01*
X168756200Y-112213681D01*
X168756200Y-120370600D01*
X167675200Y-120370600D01*
X167675200Y-112395650D01*
X167675200Y-112048800D01*
X166778350Y-112048800D01*
X166695800Y-112131350D01*
X166695800Y-112213681D01*
X166746070Y-112335043D01*
X166838957Y-112427930D01*
X166960319Y-112478200D01*
X167592650Y-112478200D01*
X167675200Y-112395650D01*
X167675200Y-120370600D01*
X159075120Y-120370600D01*
X159075120Y-115290600D01*
X161544000Y-115290600D01*
X161680082Y-115263532D01*
X161680083Y-115263532D01*
X161795447Y-115186447D01*
X165128294Y-111853600D01*
X166695800Y-111853600D01*
X166695800Y-111864650D01*
X166778350Y-111947200D01*
X167675200Y-111947200D01*
X167675200Y-111927200D01*
X167776800Y-111927200D01*
X167776800Y-111947200D01*
X168673650Y-111947200D01*
X168756200Y-111864650D01*
X168756200Y-111782319D01*
X168752098Y-111772417D01*
X168987148Y-111772839D01*
X168921765Y-106476800D01*
X162054800Y-106476800D01*
X162054800Y-106362759D01*
X162054800Y-105761790D01*
X162054800Y-105495090D01*
X162054800Y-104894121D01*
X162054800Y-104762759D01*
X162004530Y-104641397D01*
X161911643Y-104548510D01*
X161790281Y-104498240D01*
X160857950Y-104498240D01*
X160775400Y-104580790D01*
X160775400Y-105577640D01*
X161972250Y-105577640D01*
X162054800Y-105495090D01*
X162054800Y-105761790D01*
X161972250Y-105679240D01*
X160775400Y-105679240D01*
X160775400Y-105699240D01*
X160673800Y-105699240D01*
X160673800Y-105679240D01*
X160673800Y-105577640D01*
X160673800Y-104580790D01*
X160591250Y-104498240D01*
X159658919Y-104498240D01*
X159537557Y-104548510D01*
X159444670Y-104641397D01*
X159394400Y-104762759D01*
X159394400Y-104894121D01*
X159394400Y-105495090D01*
X159476950Y-105577640D01*
X160673800Y-105577640D01*
X160673800Y-105679240D01*
X159476950Y-105679240D01*
X159394400Y-105761790D01*
X159394400Y-106362759D01*
X159394400Y-106476800D01*
X159143700Y-106476800D01*
X159143700Y-99822000D01*
X159143700Y-99568000D01*
X159143700Y-97294700D01*
X179311300Y-97294700D01*
X179311300Y-98025458D01*
X179187129Y-97903203D01*
X178812968Y-97748226D01*
X178644800Y-97809644D01*
X178644800Y-98755200D01*
X178664800Y-98755200D01*
X178664800Y-98856800D01*
X178644800Y-98856800D01*
X178644800Y-99802356D01*
X178812968Y-99863774D01*
X179187129Y-99708797D01*
X179311300Y-99586541D01*
X179311300Y-106476800D01*
X179060600Y-106476800D01*
X179060600Y-106123281D01*
X179060600Y-105991919D01*
X179060600Y-105390950D01*
X179060600Y-105124250D01*
X179060600Y-104523281D01*
X179060600Y-104391919D01*
X179010330Y-104270557D01*
X178917443Y-104177670D01*
X178796081Y-104127400D01*
X178543200Y-104127400D01*
X178543200Y-99802356D01*
X178543200Y-98856800D01*
X178543200Y-98755200D01*
X178543200Y-97809644D01*
X178375032Y-97748226D01*
X178000871Y-97903203D01*
X177700535Y-98198905D01*
X177536221Y-98587031D01*
X177597540Y-98755200D01*
X178543200Y-98755200D01*
X178543200Y-98856800D01*
X177597540Y-98856800D01*
X177536221Y-99024969D01*
X177700535Y-99413095D01*
X178000871Y-99708797D01*
X178375032Y-99863774D01*
X178543200Y-99802356D01*
X178543200Y-104127400D01*
X177863750Y-104127400D01*
X177781200Y-104209950D01*
X177781200Y-105206800D01*
X178978050Y-105206800D01*
X179060600Y-105124250D01*
X179060600Y-105390950D01*
X178978050Y-105308400D01*
X177781200Y-105308400D01*
X177781200Y-106305250D01*
X177863750Y-106387800D01*
X178796081Y-106387800D01*
X178917443Y-106337530D01*
X179010330Y-106244643D01*
X179060600Y-106123281D01*
X179060600Y-106476800D01*
X177679600Y-106476800D01*
X177679600Y-106305250D01*
X177679600Y-105308400D01*
X177679600Y-105206800D01*
X177679600Y-104209950D01*
X177597050Y-104127400D01*
X176664719Y-104127400D01*
X176543357Y-104177670D01*
X176450470Y-104270557D01*
X176400200Y-104391919D01*
X176400200Y-104523281D01*
X176400200Y-105124250D01*
X176482750Y-105206800D01*
X177679600Y-105206800D01*
X177679600Y-105308400D01*
X176482750Y-105308400D01*
X176400200Y-105390950D01*
X176400200Y-105991919D01*
X176400200Y-106123281D01*
X176450470Y-106244643D01*
X176543357Y-106337530D01*
X176664719Y-106387800D01*
X177597050Y-106387800D01*
X177679600Y-106305250D01*
X177679600Y-106476800D01*
X173968880Y-106476800D01*
X174317804Y-106129124D01*
X174521112Y-105640770D01*
X174522059Y-105636008D01*
X174522059Y-105111788D01*
X174320501Y-104622709D01*
X173947124Y-104247992D01*
X173458770Y-104044684D01*
X173454008Y-104043737D01*
X173242698Y-104101722D01*
X173242698Y-105323098D01*
X174464074Y-105323098D01*
X174522059Y-105111788D01*
X174522059Y-105636008D01*
X174464074Y-105424698D01*
X173242698Y-105424698D01*
X173242698Y-106476800D01*
X173141098Y-106476800D01*
X173141098Y-105424698D01*
X173141098Y-105323098D01*
X173141098Y-104101722D01*
X172929788Y-104043737D01*
X172440709Y-104245295D01*
X172065992Y-104618672D01*
X171862684Y-105107026D01*
X171861737Y-105111788D01*
X171919722Y-105323098D01*
X173141098Y-105323098D01*
X173141098Y-105424698D01*
X171919722Y-105424698D01*
X171861737Y-105636008D01*
X172063295Y-106125087D01*
X172413750Y-106476800D01*
X170930224Y-106476800D01*
X170864854Y-111837093D01*
X171195872Y-111833284D01*
X171192921Y-111848000D01*
X171192921Y-112148000D01*
X171209833Y-112235164D01*
X171260158Y-112311774D01*
X171336129Y-112363056D01*
X171426000Y-112381079D01*
X172826000Y-112381079D01*
X172913164Y-112364167D01*
X172929250Y-112353600D01*
X173064706Y-112353600D01*
X174523400Y-113812294D01*
X174523400Y-113924921D01*
X174132800Y-113924921D01*
X174045636Y-113941833D01*
X173969026Y-113992158D01*
X173917744Y-114068129D01*
X173899721Y-114158000D01*
X173899721Y-115458000D01*
X173916633Y-115545164D01*
X173966958Y-115621774D01*
X174042929Y-115673056D01*
X174132800Y-115691079D01*
X175632800Y-115691079D01*
X175719964Y-115674167D01*
X175796574Y-115623842D01*
X175847856Y-115547871D01*
X175865879Y-115458000D01*
X175865879Y-114158000D01*
X175848967Y-114070836D01*
X175798642Y-113994226D01*
X175722671Y-113942944D01*
X175632800Y-113924921D01*
X175234600Y-113924921D01*
X175234600Y-113665000D01*
X175207532Y-113528918D01*
X175207532Y-113528917D01*
X175130447Y-113413553D01*
X174332919Y-112616025D01*
X174371000Y-112623600D01*
X176890705Y-112623600D01*
X178206400Y-113939294D01*
X178206400Y-114659321D01*
X177912000Y-114659321D01*
X177824836Y-114676233D01*
X177748226Y-114726558D01*
X177696944Y-114802529D01*
X177678921Y-114892400D01*
X177678921Y-116392400D01*
X177695833Y-116479564D01*
X177746158Y-116556174D01*
X177822129Y-116607456D01*
X177912000Y-116625479D01*
X179212000Y-116625479D01*
X179299164Y-116608567D01*
X179375774Y-116558242D01*
X179427056Y-116482271D01*
X179445079Y-116392400D01*
X179445079Y-116150400D01*
X179541362Y-116150400D01*
X179602294Y-120360743D01*
G36*
X189255400Y-110515400D02*
X183060600Y-110515400D01*
X183060600Y-106123281D01*
X183060600Y-105991919D01*
X183060600Y-105390950D01*
X183060600Y-105124250D01*
X183060600Y-104523281D01*
X183060600Y-104391919D01*
X183010330Y-104270557D01*
X182917443Y-104177670D01*
X182796081Y-104127400D01*
X181863750Y-104127400D01*
X181781200Y-104209950D01*
X181781200Y-105206800D01*
X182978050Y-105206800D01*
X183060600Y-105124250D01*
X183060600Y-105390950D01*
X182978050Y-105308400D01*
X181781200Y-105308400D01*
X181781200Y-106305250D01*
X181863750Y-106387800D01*
X182796081Y-106387800D01*
X182917443Y-106337530D01*
X183010330Y-106244643D01*
X183060600Y-106123281D01*
X183060600Y-110515400D01*
X181679600Y-110515400D01*
X181679600Y-106305250D01*
X181679600Y-105308400D01*
X181679600Y-105206800D01*
X181679600Y-104209950D01*
X181674200Y-104204550D01*
X181674200Y-99621681D01*
X181674200Y-98939350D01*
X181674200Y-98672650D01*
X181674200Y-97990319D01*
X181623930Y-97868957D01*
X181531043Y-97776070D01*
X181409681Y-97725800D01*
X181278319Y-97725800D01*
X180727350Y-97725800D01*
X180644800Y-97808350D01*
X180644800Y-98755200D01*
X181591650Y-98755200D01*
X181674200Y-98672650D01*
X181674200Y-98939350D01*
X181591650Y-98856800D01*
X180644800Y-98856800D01*
X180644800Y-99803650D01*
X180727350Y-99886200D01*
X181278319Y-99886200D01*
X181409681Y-99886200D01*
X181531043Y-99835930D01*
X181623930Y-99743043D01*
X181674200Y-99621681D01*
X181674200Y-104204550D01*
X181597050Y-104127400D01*
X180664719Y-104127400D01*
X180543357Y-104177670D01*
X180450470Y-104270557D01*
X180400200Y-104391919D01*
X180400200Y-104523281D01*
X180400200Y-105124250D01*
X180482750Y-105206800D01*
X181679600Y-105206800D01*
X181679600Y-105308400D01*
X180482750Y-105308400D01*
X180400200Y-105390950D01*
X180400200Y-105991919D01*
X180400200Y-106123281D01*
X180450470Y-106244643D01*
X180543357Y-106337530D01*
X180664719Y-106387800D01*
X181597050Y-106387800D01*
X181679600Y-106305250D01*
X181679600Y-110515400D01*
X173156200Y-110515400D01*
X173156200Y-110364650D01*
X173156200Y-110282319D01*
X173141984Y-110248000D01*
X173156200Y-110213681D01*
X173156200Y-110131350D01*
X173156200Y-109864650D01*
X173156200Y-109782319D01*
X173105930Y-109660957D01*
X173013043Y-109568070D01*
X172891681Y-109517800D01*
X172259350Y-109517800D01*
X172176800Y-109600350D01*
X172176800Y-109947200D01*
X173073650Y-109947200D01*
X173156200Y-109864650D01*
X173156200Y-110131350D01*
X173073650Y-110048800D01*
X172966521Y-110048800D01*
X172891681Y-110017800D01*
X172259350Y-110017800D01*
X172228350Y-110048800D01*
X172176800Y-110048800D01*
X172176800Y-110100350D01*
X172176800Y-110395650D01*
X172176800Y-110447200D01*
X172228350Y-110447200D01*
X172259350Y-110478200D01*
X172891681Y-110478200D01*
X172966521Y-110447200D01*
X173073650Y-110447200D01*
X173156200Y-110364650D01*
X173156200Y-110515400D01*
X172055200Y-110515400D01*
X172055200Y-110447200D01*
X172075200Y-110447200D01*
X172075200Y-110395650D01*
X172075200Y-110100350D01*
X172075200Y-110048800D01*
X172055200Y-110048800D01*
X172055200Y-109947200D01*
X172075200Y-109947200D01*
X172075200Y-109600350D01*
X171992650Y-109517800D01*
X171831000Y-109517800D01*
X171831000Y-107213400D01*
X180111802Y-107213400D01*
X180073237Y-99886200D01*
X180460650Y-99886200D01*
X180543200Y-99803650D01*
X180543200Y-98856800D01*
X180523200Y-98856800D01*
X180523200Y-98755200D01*
X180543200Y-98755200D01*
X180543200Y-97808350D01*
X180460650Y-97725800D01*
X180061867Y-97725800D01*
X180061002Y-97561400D01*
X189255400Y-97561400D01*
X189255400Y-110515400D01*
X189255400Y-110515400D01*
G37*
X189255400Y-110515400D02*
X183060600Y-110515400D01*
X183060600Y-106123281D01*
X183060600Y-105991919D01*
X183060600Y-105390950D01*
X183060600Y-105124250D01*
X183060600Y-104523281D01*
X183060600Y-104391919D01*
X183010330Y-104270557D01*
X182917443Y-104177670D01*
X182796081Y-104127400D01*
X181863750Y-104127400D01*
X181781200Y-104209950D01*
X181781200Y-105206800D01*
X182978050Y-105206800D01*
X183060600Y-105124250D01*
X183060600Y-105390950D01*
X182978050Y-105308400D01*
X181781200Y-105308400D01*
X181781200Y-106305250D01*
X181863750Y-106387800D01*
X182796081Y-106387800D01*
X182917443Y-106337530D01*
X183010330Y-106244643D01*
X183060600Y-106123281D01*
X183060600Y-110515400D01*
X181679600Y-110515400D01*
X181679600Y-106305250D01*
X181679600Y-105308400D01*
X181679600Y-105206800D01*
X181679600Y-104209950D01*
X181674200Y-104204550D01*
X181674200Y-99621681D01*
X181674200Y-98939350D01*
X181674200Y-98672650D01*
X181674200Y-97990319D01*
X181623930Y-97868957D01*
X181531043Y-97776070D01*
X181409681Y-97725800D01*
X181278319Y-97725800D01*
X180727350Y-97725800D01*
X180644800Y-97808350D01*
X180644800Y-98755200D01*
X181591650Y-98755200D01*
X181674200Y-98672650D01*
X181674200Y-98939350D01*
X181591650Y-98856800D01*
X180644800Y-98856800D01*
X180644800Y-99803650D01*
X180727350Y-99886200D01*
X181278319Y-99886200D01*
X181409681Y-99886200D01*
X181531043Y-99835930D01*
X181623930Y-99743043D01*
X181674200Y-99621681D01*
X181674200Y-104204550D01*
X181597050Y-104127400D01*
X180664719Y-104127400D01*
X180543357Y-104177670D01*
X180450470Y-104270557D01*
X180400200Y-104391919D01*
X180400200Y-104523281D01*
X180400200Y-105124250D01*
X180482750Y-105206800D01*
X181679600Y-105206800D01*
X181679600Y-105308400D01*
X180482750Y-105308400D01*
X180400200Y-105390950D01*
X180400200Y-105991919D01*
X180400200Y-106123281D01*
X180450470Y-106244643D01*
X180543357Y-106337530D01*
X180664719Y-106387800D01*
X181597050Y-106387800D01*
X181679600Y-106305250D01*
X181679600Y-110515400D01*
X173156200Y-110515400D01*
X173156200Y-110364650D01*
X173156200Y-110282319D01*
X173141984Y-110248000D01*
X173156200Y-110213681D01*
X173156200Y-110131350D01*
X173156200Y-109864650D01*
X173156200Y-109782319D01*
X173105930Y-109660957D01*
X173013043Y-109568070D01*
X172891681Y-109517800D01*
X172259350Y-109517800D01*
X172176800Y-109600350D01*
X172176800Y-109947200D01*
X173073650Y-109947200D01*
X173156200Y-109864650D01*
X173156200Y-110131350D01*
X173073650Y-110048800D01*
X172966521Y-110048800D01*
X172891681Y-110017800D01*
X172259350Y-110017800D01*
X172228350Y-110048800D01*
X172176800Y-110048800D01*
X172176800Y-110100350D01*
X172176800Y-110395650D01*
X172176800Y-110447200D01*
X172228350Y-110447200D01*
X172259350Y-110478200D01*
X172891681Y-110478200D01*
X172966521Y-110447200D01*
X173073650Y-110447200D01*
X173156200Y-110364650D01*
X173156200Y-110515400D01*
X172055200Y-110515400D01*
X172055200Y-110447200D01*
X172075200Y-110447200D01*
X172075200Y-110395650D01*
X172075200Y-110100350D01*
X172075200Y-110048800D01*
X172055200Y-110048800D01*
X172055200Y-109947200D01*
X172075200Y-109947200D01*
X172075200Y-109600350D01*
X171992650Y-109517800D01*
X171831000Y-109517800D01*
X171831000Y-107213400D01*
X180111802Y-107213400D01*
X180073237Y-99886200D01*
X180460650Y-99886200D01*
X180543200Y-99803650D01*
X180543200Y-98856800D01*
X180523200Y-98856800D01*
X180523200Y-98755200D01*
X180543200Y-98755200D01*
X180543200Y-97808350D01*
X180460650Y-97725800D01*
X180061867Y-97725800D01*
X180061002Y-97561400D01*
X189255400Y-97561400D01*
X189255400Y-110515400D01*
G36*
X168071800Y-109517800D02*
X167859350Y-109517800D01*
X167776800Y-109600350D01*
X167776800Y-109947200D01*
X167796800Y-109947200D01*
X167796800Y-110048800D01*
X167776800Y-110048800D01*
X167776800Y-110100350D01*
X167776800Y-110395650D01*
X167776800Y-110447200D01*
X167796800Y-110447200D01*
X167796800Y-110548800D01*
X167776800Y-110548800D01*
X167776800Y-110568800D01*
X167675200Y-110568800D01*
X167675200Y-110548800D01*
X167675200Y-110447200D01*
X167675200Y-110395650D01*
X167675200Y-110100350D01*
X167675200Y-110048800D01*
X167675200Y-109947200D01*
X167675200Y-109600350D01*
X167592650Y-109517800D01*
X166960319Y-109517800D01*
X166838957Y-109568070D01*
X166746070Y-109660957D01*
X166695800Y-109782319D01*
X166695800Y-109864650D01*
X166778350Y-109947200D01*
X167675200Y-109947200D01*
X167675200Y-110048800D01*
X167623650Y-110048800D01*
X167592650Y-110017800D01*
X166960319Y-110017800D01*
X166885478Y-110048800D01*
X166778350Y-110048800D01*
X166695800Y-110131350D01*
X166695800Y-110213681D01*
X166710015Y-110248000D01*
X166695800Y-110282319D01*
X166695800Y-110364650D01*
X166778350Y-110447200D01*
X166885478Y-110447200D01*
X166960319Y-110478200D01*
X167592650Y-110478200D01*
X167623650Y-110447200D01*
X167675200Y-110447200D01*
X167675200Y-110548800D01*
X166778350Y-110548800D01*
X166695800Y-110631350D01*
X166695800Y-110642400D01*
X164592000Y-110642400D01*
X164455917Y-110669468D01*
X164340553Y-110746553D01*
X164167049Y-110920056D01*
X158054800Y-110917378D01*
X158054800Y-106494121D01*
X158054800Y-106362759D01*
X158054800Y-105761790D01*
X158054800Y-105495090D01*
X158054800Y-104894121D01*
X158054800Y-104762759D01*
X158004530Y-104641397D01*
X157911643Y-104548510D01*
X157790281Y-104498240D01*
X156857950Y-104498240D01*
X156775400Y-104580790D01*
X156775400Y-105577640D01*
X157972250Y-105577640D01*
X158054800Y-105495090D01*
X158054800Y-105761790D01*
X157972250Y-105679240D01*
X156775400Y-105679240D01*
X156775400Y-106676090D01*
X156857950Y-106758640D01*
X157790281Y-106758640D01*
X157911643Y-106708370D01*
X158004530Y-106615483D01*
X158054800Y-106494121D01*
X158054800Y-110917378D01*
X156673800Y-110916772D01*
X156673800Y-106676090D01*
X156673800Y-105679240D01*
X156673800Y-105577640D01*
X156673800Y-104580790D01*
X156591250Y-104498240D01*
X155658919Y-104498240D01*
X155537557Y-104548510D01*
X155444670Y-104641397D01*
X155394400Y-104762759D01*
X155394400Y-104894121D01*
X155394400Y-105495090D01*
X155476950Y-105577640D01*
X156673800Y-105577640D01*
X156673800Y-105679240D01*
X155476950Y-105679240D01*
X155394400Y-105761790D01*
X155394400Y-106362759D01*
X155394400Y-106494121D01*
X155444670Y-106615483D01*
X155537557Y-106708370D01*
X155658919Y-106758640D01*
X156591250Y-106758640D01*
X156673800Y-106676090D01*
X156673800Y-110916772D01*
X154320000Y-110915741D01*
X154320000Y-107651881D01*
X154320000Y-106969550D01*
X154320000Y-106702850D01*
X154320000Y-106020519D01*
X154269730Y-105899157D01*
X154176843Y-105806270D01*
X154055481Y-105756000D01*
X153924119Y-105756000D01*
X153473150Y-105756000D01*
X153390600Y-105838550D01*
X153390600Y-106785400D01*
X154237450Y-106785400D01*
X154320000Y-106702850D01*
X154320000Y-106969550D01*
X154237450Y-106887000D01*
X153390600Y-106887000D01*
X153390600Y-107833850D01*
X153473150Y-107916400D01*
X153924119Y-107916400D01*
X154055481Y-107916400D01*
X154176843Y-107866130D01*
X154269730Y-107773243D01*
X154320000Y-107651881D01*
X154320000Y-110915741D01*
X153289000Y-110915289D01*
X153289000Y-107833850D01*
X153289000Y-106887000D01*
X153289000Y-106785400D01*
X153289000Y-105838550D01*
X153206450Y-105756000D01*
X152755481Y-105756000D01*
X152624119Y-105756000D01*
X152502757Y-105806270D01*
X152409870Y-105899157D01*
X152359600Y-106020519D01*
X152359600Y-106702850D01*
X152442150Y-106785400D01*
X153289000Y-106785400D01*
X153289000Y-106887000D01*
X152442150Y-106887000D01*
X152359600Y-106969550D01*
X152359600Y-107651881D01*
X152409870Y-107773243D01*
X152502757Y-107866130D01*
X152624119Y-107916400D01*
X152755481Y-107916400D01*
X153206450Y-107916400D01*
X153289000Y-107833850D01*
X153289000Y-110915289D01*
X151942560Y-110914700D01*
X151942560Y-107585841D01*
X151942560Y-106903510D01*
X151942560Y-106636810D01*
X151942560Y-105954479D01*
X151892290Y-105833117D01*
X151799403Y-105740230D01*
X151678041Y-105689960D01*
X151546679Y-105689960D01*
X151095710Y-105689960D01*
X151013160Y-105772510D01*
X151013160Y-106719360D01*
X151860010Y-106719360D01*
X151942560Y-106636810D01*
X151942560Y-106903510D01*
X151860010Y-106820960D01*
X151013160Y-106820960D01*
X151013160Y-107767810D01*
X151095710Y-107850360D01*
X151546679Y-107850360D01*
X151678041Y-107850360D01*
X151799403Y-107800090D01*
X151892290Y-107707203D01*
X151942560Y-107585841D01*
X151942560Y-110914700D01*
X150911560Y-110914248D01*
X150911560Y-107767810D01*
X150911560Y-106820960D01*
X150911560Y-106719360D01*
X150911560Y-105772510D01*
X150829010Y-105689960D01*
X150378041Y-105689960D01*
X150246679Y-105689960D01*
X150125317Y-105740230D01*
X150032430Y-105833117D01*
X149982160Y-105954479D01*
X149982160Y-106636810D01*
X150064710Y-106719360D01*
X150911560Y-106719360D01*
X150911560Y-106820960D01*
X150064710Y-106820960D01*
X149982160Y-106903510D01*
X149982160Y-107585841D01*
X150032430Y-107707203D01*
X150125317Y-107800090D01*
X150246679Y-107850360D01*
X150378041Y-107850360D01*
X150829010Y-107850360D01*
X150911560Y-107767810D01*
X150911560Y-110914248D01*
X149514320Y-110913636D01*
X149514320Y-107651881D01*
X149514320Y-106969550D01*
X149514320Y-106702850D01*
X149514320Y-106020519D01*
X149464050Y-105899157D01*
X149371163Y-105806270D01*
X149249801Y-105756000D01*
X149118439Y-105756000D01*
X148667470Y-105756000D01*
X148584920Y-105838550D01*
X148584920Y-106785400D01*
X149431770Y-106785400D01*
X149514320Y-106702850D01*
X149514320Y-106969550D01*
X149431770Y-106887000D01*
X148584920Y-106887000D01*
X148584920Y-107833850D01*
X148667470Y-107916400D01*
X149118439Y-107916400D01*
X149249801Y-107916400D01*
X149371163Y-107866130D01*
X149464050Y-107773243D01*
X149514320Y-107651881D01*
X149514320Y-110913636D01*
X148483320Y-110913184D01*
X148483320Y-107833850D01*
X148483320Y-106887000D01*
X148483320Y-106785400D01*
X148483320Y-105838550D01*
X148400770Y-105756000D01*
X147949801Y-105756000D01*
X147818439Y-105756000D01*
X147697077Y-105806270D01*
X147604190Y-105899157D01*
X147553920Y-106020519D01*
X147553920Y-106702850D01*
X147636470Y-106785400D01*
X148483320Y-106785400D01*
X148483320Y-106887000D01*
X147636470Y-106887000D01*
X147553920Y-106969550D01*
X147553920Y-107651881D01*
X147604190Y-107773243D01*
X147697077Y-107866130D01*
X147818439Y-107916400D01*
X147949801Y-107916400D01*
X148400770Y-107916400D01*
X148483320Y-107833850D01*
X148483320Y-110913184D01*
X145058600Y-110911684D01*
X145058600Y-105115610D01*
X145069241Y-102575417D01*
X148404585Y-102577920D01*
X148282673Y-102699833D01*
X148205588Y-102815197D01*
X148178520Y-102951280D01*
X148178520Y-103153121D01*
X147884120Y-103153121D01*
X147796956Y-103170033D01*
X147720346Y-103220358D01*
X147669064Y-103296329D01*
X147651041Y-103386200D01*
X147651041Y-104886200D01*
X147667953Y-104973364D01*
X147718278Y-105049974D01*
X147794249Y-105101256D01*
X147884120Y-105119279D01*
X149184120Y-105119279D01*
X149271284Y-105102367D01*
X149347894Y-105052042D01*
X149399176Y-104976071D01*
X149417199Y-104886200D01*
X149417199Y-103386200D01*
X149400287Y-103299036D01*
X149349962Y-103222426D01*
X149273991Y-103171144D01*
X149184120Y-103153121D01*
X148889720Y-103153121D01*
X148889720Y-103098574D01*
X149006534Y-102981760D01*
X151509699Y-102981760D01*
X151500223Y-103029402D01*
X151500222Y-103029403D01*
X151442545Y-103087081D01*
X150312360Y-103087081D01*
X150225196Y-103103993D01*
X150148586Y-103154318D01*
X150097304Y-103230289D01*
X150079281Y-103320160D01*
X150079281Y-104820160D01*
X150096193Y-104907324D01*
X150146518Y-104983934D01*
X150222489Y-105035216D01*
X150312360Y-105053239D01*
X151612360Y-105053239D01*
X151699524Y-105036327D01*
X151776134Y-104986002D01*
X151827416Y-104910031D01*
X151845439Y-104820160D01*
X151845439Y-103689975D01*
X152095527Y-103439887D01*
X152172611Y-103324523D01*
X152172612Y-103324522D01*
X152187936Y-103247477D01*
X152311087Y-103124327D01*
X152388172Y-103008963D01*
X152388172Y-103008962D01*
X152402086Y-102939007D01*
X152759905Y-102581188D01*
X152863160Y-102581266D01*
X152863160Y-103153121D01*
X152689800Y-103153121D01*
X152602636Y-103170033D01*
X152526026Y-103220358D01*
X152474744Y-103296329D01*
X152456721Y-103386200D01*
X152456721Y-104886200D01*
X152473633Y-104973364D01*
X152523958Y-105049974D01*
X152599929Y-105101256D01*
X152689800Y-105119279D01*
X153989800Y-105119279D01*
X154076964Y-105102367D01*
X154153574Y-105052042D01*
X154204856Y-104976071D01*
X154222879Y-104886200D01*
X154222879Y-103386200D01*
X154205967Y-103299036D01*
X154155642Y-103222426D01*
X154079671Y-103171144D01*
X153989800Y-103153121D01*
X153574360Y-103153121D01*
X153574360Y-102581799D01*
X158455608Y-102585463D01*
X158470848Y-107264200D01*
X168071800Y-107264200D01*
X168071800Y-109517800D01*
X168071800Y-109517800D01*
G37*
X168071800Y-109517800D02*
X167859350Y-109517800D01*
X167776800Y-109600350D01*
X167776800Y-109947200D01*
X167796800Y-109947200D01*
X167796800Y-110048800D01*
X167776800Y-110048800D01*
X167776800Y-110100350D01*
X167776800Y-110395650D01*
X167776800Y-110447200D01*
X167796800Y-110447200D01*
X167796800Y-110548800D01*
X167776800Y-110548800D01*
X167776800Y-110568800D01*
X167675200Y-110568800D01*
X167675200Y-110548800D01*
X167675200Y-110447200D01*
X167675200Y-110395650D01*
X167675200Y-110100350D01*
X167675200Y-110048800D01*
X167675200Y-109947200D01*
X167675200Y-109600350D01*
X167592650Y-109517800D01*
X166960319Y-109517800D01*
X166838957Y-109568070D01*
X166746070Y-109660957D01*
X166695800Y-109782319D01*
X166695800Y-109864650D01*
X166778350Y-109947200D01*
X167675200Y-109947200D01*
X167675200Y-110048800D01*
X167623650Y-110048800D01*
X167592650Y-110017800D01*
X166960319Y-110017800D01*
X166885478Y-110048800D01*
X166778350Y-110048800D01*
X166695800Y-110131350D01*
X166695800Y-110213681D01*
X166710015Y-110248000D01*
X166695800Y-110282319D01*
X166695800Y-110364650D01*
X166778350Y-110447200D01*
X166885478Y-110447200D01*
X166960319Y-110478200D01*
X167592650Y-110478200D01*
X167623650Y-110447200D01*
X167675200Y-110447200D01*
X167675200Y-110548800D01*
X166778350Y-110548800D01*
X166695800Y-110631350D01*
X166695800Y-110642400D01*
X164592000Y-110642400D01*
X164455917Y-110669468D01*
X164340553Y-110746553D01*
X164167049Y-110920056D01*
X158054800Y-110917378D01*
X158054800Y-106494121D01*
X158054800Y-106362759D01*
X158054800Y-105761790D01*
X158054800Y-105495090D01*
X158054800Y-104894121D01*
X158054800Y-104762759D01*
X158004530Y-104641397D01*
X157911643Y-104548510D01*
X157790281Y-104498240D01*
X156857950Y-104498240D01*
X156775400Y-104580790D01*
X156775400Y-105577640D01*
X157972250Y-105577640D01*
X158054800Y-105495090D01*
X158054800Y-105761790D01*
X157972250Y-105679240D01*
X156775400Y-105679240D01*
X156775400Y-106676090D01*
X156857950Y-106758640D01*
X157790281Y-106758640D01*
X157911643Y-106708370D01*
X158004530Y-106615483D01*
X158054800Y-106494121D01*
X158054800Y-110917378D01*
X156673800Y-110916772D01*
X156673800Y-106676090D01*
X156673800Y-105679240D01*
X156673800Y-105577640D01*
X156673800Y-104580790D01*
X156591250Y-104498240D01*
X155658919Y-104498240D01*
X155537557Y-104548510D01*
X155444670Y-104641397D01*
X155394400Y-104762759D01*
X155394400Y-104894121D01*
X155394400Y-105495090D01*
X155476950Y-105577640D01*
X156673800Y-105577640D01*
X156673800Y-105679240D01*
X155476950Y-105679240D01*
X155394400Y-105761790D01*
X155394400Y-106362759D01*
X155394400Y-106494121D01*
X155444670Y-106615483D01*
X155537557Y-106708370D01*
X155658919Y-106758640D01*
X156591250Y-106758640D01*
X156673800Y-106676090D01*
X156673800Y-110916772D01*
X154320000Y-110915741D01*
X154320000Y-107651881D01*
X154320000Y-106969550D01*
X154320000Y-106702850D01*
X154320000Y-106020519D01*
X154269730Y-105899157D01*
X154176843Y-105806270D01*
X154055481Y-105756000D01*
X153924119Y-105756000D01*
X153473150Y-105756000D01*
X153390600Y-105838550D01*
X153390600Y-106785400D01*
X154237450Y-106785400D01*
X154320000Y-106702850D01*
X154320000Y-106969550D01*
X154237450Y-106887000D01*
X153390600Y-106887000D01*
X153390600Y-107833850D01*
X153473150Y-107916400D01*
X153924119Y-107916400D01*
X154055481Y-107916400D01*
X154176843Y-107866130D01*
X154269730Y-107773243D01*
X154320000Y-107651881D01*
X154320000Y-110915741D01*
X153289000Y-110915289D01*
X153289000Y-107833850D01*
X153289000Y-106887000D01*
X153289000Y-106785400D01*
X153289000Y-105838550D01*
X153206450Y-105756000D01*
X152755481Y-105756000D01*
X152624119Y-105756000D01*
X152502757Y-105806270D01*
X152409870Y-105899157D01*
X152359600Y-106020519D01*
X152359600Y-106702850D01*
X152442150Y-106785400D01*
X153289000Y-106785400D01*
X153289000Y-106887000D01*
X152442150Y-106887000D01*
X152359600Y-106969550D01*
X152359600Y-107651881D01*
X152409870Y-107773243D01*
X152502757Y-107866130D01*
X152624119Y-107916400D01*
X152755481Y-107916400D01*
X153206450Y-107916400D01*
X153289000Y-107833850D01*
X153289000Y-110915289D01*
X151942560Y-110914700D01*
X151942560Y-107585841D01*
X151942560Y-106903510D01*
X151942560Y-106636810D01*
X151942560Y-105954479D01*
X151892290Y-105833117D01*
X151799403Y-105740230D01*
X151678041Y-105689960D01*
X151546679Y-105689960D01*
X151095710Y-105689960D01*
X151013160Y-105772510D01*
X151013160Y-106719360D01*
X151860010Y-106719360D01*
X151942560Y-106636810D01*
X151942560Y-106903510D01*
X151860010Y-106820960D01*
X151013160Y-106820960D01*
X151013160Y-107767810D01*
X151095710Y-107850360D01*
X151546679Y-107850360D01*
X151678041Y-107850360D01*
X151799403Y-107800090D01*
X151892290Y-107707203D01*
X151942560Y-107585841D01*
X151942560Y-110914700D01*
X150911560Y-110914248D01*
X150911560Y-107767810D01*
X150911560Y-106820960D01*
X150911560Y-106719360D01*
X150911560Y-105772510D01*
X150829010Y-105689960D01*
X150378041Y-105689960D01*
X150246679Y-105689960D01*
X150125317Y-105740230D01*
X150032430Y-105833117D01*
X149982160Y-105954479D01*
X149982160Y-106636810D01*
X150064710Y-106719360D01*
X150911560Y-106719360D01*
X150911560Y-106820960D01*
X150064710Y-106820960D01*
X149982160Y-106903510D01*
X149982160Y-107585841D01*
X150032430Y-107707203D01*
X150125317Y-107800090D01*
X150246679Y-107850360D01*
X150378041Y-107850360D01*
X150829010Y-107850360D01*
X150911560Y-107767810D01*
X150911560Y-110914248D01*
X149514320Y-110913636D01*
X149514320Y-107651881D01*
X149514320Y-106969550D01*
X149514320Y-106702850D01*
X149514320Y-106020519D01*
X149464050Y-105899157D01*
X149371163Y-105806270D01*
X149249801Y-105756000D01*
X149118439Y-105756000D01*
X148667470Y-105756000D01*
X148584920Y-105838550D01*
X148584920Y-106785400D01*
X149431770Y-106785400D01*
X149514320Y-106702850D01*
X149514320Y-106969550D01*
X149431770Y-106887000D01*
X148584920Y-106887000D01*
X148584920Y-107833850D01*
X148667470Y-107916400D01*
X149118439Y-107916400D01*
X149249801Y-107916400D01*
X149371163Y-107866130D01*
X149464050Y-107773243D01*
X149514320Y-107651881D01*
X149514320Y-110913636D01*
X148483320Y-110913184D01*
X148483320Y-107833850D01*
X148483320Y-106887000D01*
X148483320Y-106785400D01*
X148483320Y-105838550D01*
X148400770Y-105756000D01*
X147949801Y-105756000D01*
X147818439Y-105756000D01*
X147697077Y-105806270D01*
X147604190Y-105899157D01*
X147553920Y-106020519D01*
X147553920Y-106702850D01*
X147636470Y-106785400D01*
X148483320Y-106785400D01*
X148483320Y-106887000D01*
X147636470Y-106887000D01*
X147553920Y-106969550D01*
X147553920Y-107651881D01*
X147604190Y-107773243D01*
X147697077Y-107866130D01*
X147818439Y-107916400D01*
X147949801Y-107916400D01*
X148400770Y-107916400D01*
X148483320Y-107833850D01*
X148483320Y-110913184D01*
X145058600Y-110911684D01*
X145058600Y-105115610D01*
X145069241Y-102575417D01*
X148404585Y-102577920D01*
X148282673Y-102699833D01*
X148205588Y-102815197D01*
X148178520Y-102951280D01*
X148178520Y-103153121D01*
X147884120Y-103153121D01*
X147796956Y-103170033D01*
X147720346Y-103220358D01*
X147669064Y-103296329D01*
X147651041Y-103386200D01*
X147651041Y-104886200D01*
X147667953Y-104973364D01*
X147718278Y-105049974D01*
X147794249Y-105101256D01*
X147884120Y-105119279D01*
X149184120Y-105119279D01*
X149271284Y-105102367D01*
X149347894Y-105052042D01*
X149399176Y-104976071D01*
X149417199Y-104886200D01*
X149417199Y-103386200D01*
X149400287Y-103299036D01*
X149349962Y-103222426D01*
X149273991Y-103171144D01*
X149184120Y-103153121D01*
X148889720Y-103153121D01*
X148889720Y-103098574D01*
X149006534Y-102981760D01*
X151509699Y-102981760D01*
X151500223Y-103029402D01*
X151500222Y-103029403D01*
X151442545Y-103087081D01*
X150312360Y-103087081D01*
X150225196Y-103103993D01*
X150148586Y-103154318D01*
X150097304Y-103230289D01*
X150079281Y-103320160D01*
X150079281Y-104820160D01*
X150096193Y-104907324D01*
X150146518Y-104983934D01*
X150222489Y-105035216D01*
X150312360Y-105053239D01*
X151612360Y-105053239D01*
X151699524Y-105036327D01*
X151776134Y-104986002D01*
X151827416Y-104910031D01*
X151845439Y-104820160D01*
X151845439Y-103689975D01*
X152095527Y-103439887D01*
X152172611Y-103324523D01*
X152172612Y-103324522D01*
X152187936Y-103247477D01*
X152311087Y-103124327D01*
X152388172Y-103008963D01*
X152388172Y-103008962D01*
X152402086Y-102939007D01*
X152759905Y-102581188D01*
X152863160Y-102581266D01*
X152863160Y-103153121D01*
X152689800Y-103153121D01*
X152602636Y-103170033D01*
X152526026Y-103220358D01*
X152474744Y-103296329D01*
X152456721Y-103386200D01*
X152456721Y-104886200D01*
X152473633Y-104973364D01*
X152523958Y-105049974D01*
X152599929Y-105101256D01*
X152689800Y-105119279D01*
X153989800Y-105119279D01*
X154076964Y-105102367D01*
X154153574Y-105052042D01*
X154204856Y-104976071D01*
X154222879Y-104886200D01*
X154222879Y-103386200D01*
X154205967Y-103299036D01*
X154155642Y-103222426D01*
X154079671Y-103171144D01*
X153989800Y-103153121D01*
X153574360Y-103153121D01*
X153574360Y-102581799D01*
X158455608Y-102585463D01*
X158470848Y-107264200D01*
X168071800Y-107264200D01*
X168071800Y-109517800D01*
M02*
