G04 #@! TF.FileFunction,Copper,L2,Bot,Signal*
%FSLAX46Y46*%
G04 Gerber Fmt 4.6, Leading zero omitted, Abs format (unit mm)*
G04 Created by KiCad (PCBNEW 0.201503210816+5526~22~ubuntu14.10.1-product) date Sun 22 Mar 2015 03:55:30 PM EDT*
%MOMM*%
G01*
G04 APERTURE LIST*
%ADD10C,0.100000*%
%ADD11R,2.032000X2.032000*%
%ADD12O,2.032000X2.032000*%
%ADD13C,1.600000*%
%ADD14R,1.500000X1.500000*%
%ADD15O,1.500000X1.500000*%
%ADD16C,0.685800*%
%ADD17C,0.152400*%
%ADD18C,0.254000*%
G04 APERTURE END LIST*
D10*
D11*
X175006000Y-117703600D03*
D12*
X172466000Y-117703600D03*
D13*
X155868760Y-98643440D03*
X149268760Y-98643440D03*
D14*
X180594000Y-98806000D03*
D15*
X178594000Y-98806000D03*
D16*
X175895000Y-113030000D03*
X177165000Y-114935000D03*
X177165000Y-116840000D03*
X176530000Y-120015000D03*
X173355000Y-120015000D03*
X169545000Y-120015000D03*
X166370000Y-120015000D03*
X163195000Y-120015000D03*
X160020000Y-120015000D03*
X161290000Y-118110000D03*
X164465000Y-118110000D03*
X167640000Y-118110000D03*
X170180000Y-118110000D03*
X168910000Y-116205000D03*
X165735000Y-116205000D03*
X162560000Y-116205000D03*
X160020000Y-116205000D03*
X165100000Y-114300000D03*
X167640000Y-114300000D03*
X170180000Y-114300000D03*
X170180000Y-112395000D03*
X170180000Y-110490000D03*
X170180000Y-108585000D03*
X170180000Y-106680000D03*
X160655000Y-101600000D03*
X160655000Y-103505000D03*
X175895000Y-97790000D03*
X175895000Y-99695000D03*
X175895000Y-101600000D03*
X175895000Y-103505000D03*
X175895000Y-105410000D03*
X173355000Y-105410000D03*
X173355000Y-103505000D03*
X173355000Y-101600000D03*
X173355000Y-99695000D03*
X173355000Y-97790000D03*
X170815000Y-97790000D03*
X170815000Y-99695000D03*
X170815000Y-101600000D03*
X170815000Y-103505000D03*
X170815000Y-105410000D03*
X168275000Y-105410000D03*
X168275000Y-103505000D03*
X168275000Y-101600000D03*
X168275000Y-99695000D03*
X168275000Y-97790000D03*
X165735000Y-97790000D03*
X165735000Y-99695000D03*
X165735000Y-101600000D03*
X165735000Y-103505000D03*
X165735000Y-105410000D03*
X163195000Y-105410000D03*
X163195000Y-103505000D03*
X163195000Y-101600000D03*
X163195000Y-99695000D03*
X163195000Y-97790000D03*
X160655000Y-97790000D03*
X160655000Y-99695000D03*
X178567080Y-112593120D03*
X178435000Y-102870000D03*
X178435000Y-100965000D03*
X155575000Y-103505000D03*
X157480000Y-103505000D03*
X147955000Y-108585000D03*
X149860000Y-108585000D03*
X152400000Y-108585000D03*
X154305000Y-108585000D03*
X146050000Y-104140000D03*
X146050000Y-106045000D03*
X146050000Y-107950000D03*
X146050000Y-109855000D03*
X148590000Y-109855000D03*
X151130000Y-109855000D03*
X153670000Y-109855000D03*
X156845000Y-109855000D03*
X159385000Y-109855000D03*
X161925000Y-109855000D03*
X164465000Y-109855000D03*
X167005000Y-107950000D03*
X164465000Y-107950000D03*
X161925000Y-107950000D03*
X159385000Y-107950000D03*
X156845000Y-107950000D03*
X187960000Y-109855000D03*
X186690000Y-102235000D03*
X187960000Y-104140000D03*
X185420000Y-104140000D03*
X183515000Y-104140000D03*
X184150000Y-106045000D03*
X186690000Y-106045000D03*
X188595000Y-106045000D03*
X188595000Y-107950000D03*
X186055000Y-107950000D03*
X183515000Y-107950000D03*
X180975000Y-107950000D03*
X178435000Y-107950000D03*
X175895000Y-107950000D03*
X173355000Y-107950000D03*
X174625000Y-109220000D03*
X177165000Y-109220000D03*
X180340000Y-109220000D03*
X182245000Y-109855000D03*
X184785000Y-109855000D03*
X181610000Y-102235000D03*
X183515000Y-98425000D03*
X185420000Y-98425000D03*
X187960000Y-98425000D03*
X187960000Y-100330000D03*
X185420000Y-100330000D03*
X183515000Y-100330000D03*
X184150000Y-102235000D03*
D17*
X175895000Y-113665000D02*
X175895000Y-113030000D01*
X177165000Y-114935000D02*
X175895000Y-113665000D01*
X177165000Y-119380000D02*
X177165000Y-116840000D01*
X176530000Y-120015000D02*
X177165000Y-119380000D01*
X169545000Y-120015000D02*
X173355000Y-120015000D01*
X163195000Y-120015000D02*
X166370000Y-120015000D01*
X160020000Y-119380000D02*
X160020000Y-120015000D01*
X161290000Y-118110000D02*
X160020000Y-119380000D01*
X167640000Y-118110000D02*
X164465000Y-118110000D01*
X170180000Y-117475000D02*
X170180000Y-118110000D01*
X168910000Y-116205000D02*
X170180000Y-117475000D01*
X162560000Y-116205000D02*
X165735000Y-116205000D01*
X160655000Y-115570000D02*
X160020000Y-116205000D01*
X161925000Y-115570000D02*
X160655000Y-115570000D01*
X163195000Y-114300000D02*
X161925000Y-115570000D01*
X165100000Y-114300000D02*
X163195000Y-114300000D01*
X170180000Y-114300000D02*
X167640000Y-114300000D01*
X170180000Y-110490000D02*
X170180000Y-112395000D01*
X170180000Y-106680000D02*
X170180000Y-108585000D01*
X160655000Y-103505000D02*
X160655000Y-101600000D01*
X175895000Y-99695000D02*
X175895000Y-97790000D01*
X175895000Y-103505000D02*
X175895000Y-101600000D01*
X173355000Y-105410000D02*
X175895000Y-105410000D01*
X173355000Y-101600000D02*
X173355000Y-103505000D01*
X173355000Y-97790000D02*
X173355000Y-99695000D01*
X170815000Y-99695000D02*
X170815000Y-97790000D01*
X170815000Y-103505000D02*
X170815000Y-101600000D01*
X168275000Y-105410000D02*
X170815000Y-105410000D01*
X168275000Y-101600000D02*
X168275000Y-103505000D01*
X168275000Y-97790000D02*
X168275000Y-99695000D01*
X165735000Y-99695000D02*
X165735000Y-97790000D01*
X165735000Y-103505000D02*
X165735000Y-101600000D01*
X163195000Y-105410000D02*
X165735000Y-105410000D01*
X163195000Y-101600000D02*
X163195000Y-103505000D01*
X163195000Y-97790000D02*
X163195000Y-99695000D01*
X160655000Y-99695000D02*
X160655000Y-97790000D01*
X178435000Y-100965000D02*
X178435000Y-102870000D01*
X157480000Y-103505000D02*
X155575000Y-103505000D01*
X149860000Y-108585000D02*
X147955000Y-108585000D01*
X154305000Y-108585000D02*
X152400000Y-108585000D01*
X146050000Y-106045000D02*
X146050000Y-104140000D01*
X146050000Y-109855000D02*
X146050000Y-107950000D01*
X151130000Y-109855000D02*
X148590000Y-109855000D01*
X156845000Y-109855000D02*
X153670000Y-109855000D01*
X161925000Y-109855000D02*
X159385000Y-109855000D01*
X165100000Y-109855000D02*
X164465000Y-109855000D01*
X167005000Y-107950000D02*
X165100000Y-109855000D01*
X161925000Y-107950000D02*
X164465000Y-107950000D01*
X156845000Y-107950000D02*
X159385000Y-107950000D01*
X186690000Y-102235000D02*
X187960000Y-103505000D01*
X187960000Y-103505000D02*
X187960000Y-104140000D01*
X185420000Y-104140000D02*
X183515000Y-104140000D01*
X184150000Y-106045000D02*
X186690000Y-106045000D01*
X188595000Y-106045000D02*
X188595000Y-107950000D01*
X186055000Y-107950000D02*
X183515000Y-107950000D01*
X180975000Y-107950000D02*
X178435000Y-107950000D01*
X175895000Y-107950000D02*
X173355000Y-107950000D01*
X174625000Y-109220000D02*
X177165000Y-109220000D01*
X180340000Y-109220000D02*
X180975000Y-109855000D01*
X180975000Y-109855000D02*
X182245000Y-109855000D01*
X187960000Y-109855000D02*
X184785000Y-109855000D01*
X183515000Y-98425000D02*
X185420000Y-98425000D01*
X187960000Y-98425000D02*
X187960000Y-100330000D01*
X185420000Y-100330000D02*
X183515000Y-100330000D01*
X181610000Y-102235000D02*
X184150000Y-102235000D01*
G36*
X168071800Y-110921717D02*
X156897538Y-110909479D01*
X156897538Y-98439737D01*
X156741273Y-98061546D01*
X156452176Y-97771944D01*
X156074259Y-97615019D01*
X155665057Y-97614662D01*
X155286866Y-97770927D01*
X154997264Y-98060024D01*
X154840339Y-98437941D01*
X154839982Y-98847143D01*
X154996247Y-99225334D01*
X155285344Y-99514936D01*
X155663261Y-99671861D01*
X156072463Y-99672218D01*
X156450654Y-99515953D01*
X156740256Y-99226856D01*
X156897181Y-98848939D01*
X156897538Y-98439737D01*
X156897538Y-110909479D01*
X150297538Y-110902252D01*
X150297538Y-98439737D01*
X150141273Y-98061546D01*
X149852176Y-97771944D01*
X149474259Y-97615019D01*
X149065057Y-97614662D01*
X148686866Y-97770927D01*
X148397264Y-98060024D01*
X148240339Y-98437941D01*
X148239982Y-98847143D01*
X148396247Y-99225334D01*
X148685344Y-99514936D01*
X149063261Y-99671861D01*
X149472463Y-99672218D01*
X149850654Y-99515953D01*
X150140256Y-99226856D01*
X150297181Y-98848939D01*
X150297538Y-98439737D01*
X150297538Y-110902252D01*
X145058600Y-110896515D01*
X145058600Y-97256798D01*
X158420186Y-97281858D01*
X158470987Y-107264200D01*
X168071800Y-107264200D01*
X168071800Y-110921717D01*
X168071800Y-110921717D01*
G37*
X168071800Y-110921717D02*
X156897538Y-110909479D01*
X156897538Y-98439737D01*
X156741273Y-98061546D01*
X156452176Y-97771944D01*
X156074259Y-97615019D01*
X155665057Y-97614662D01*
X155286866Y-97770927D01*
X154997264Y-98060024D01*
X154840339Y-98437941D01*
X154839982Y-98847143D01*
X154996247Y-99225334D01*
X155285344Y-99514936D01*
X155663261Y-99671861D01*
X156072463Y-99672218D01*
X156450654Y-99515953D01*
X156740256Y-99226856D01*
X156897181Y-98848939D01*
X156897538Y-98439737D01*
X156897538Y-110909479D01*
X150297538Y-110902252D01*
X150297538Y-98439737D01*
X150141273Y-98061546D01*
X149852176Y-97771944D01*
X149474259Y-97615019D01*
X149065057Y-97614662D01*
X148686866Y-97770927D01*
X148397264Y-98060024D01*
X148240339Y-98437941D01*
X148239982Y-98847143D01*
X148396247Y-99225334D01*
X148685344Y-99514936D01*
X149063261Y-99671861D01*
X149472463Y-99672218D01*
X149850654Y-99515953D01*
X150140256Y-99226856D01*
X150297181Y-98848939D01*
X150297538Y-98439737D01*
X150297538Y-110902252D01*
X145058600Y-110896515D01*
X145058600Y-97256798D01*
X158420186Y-97281858D01*
X158470987Y-107264200D01*
X168071800Y-107264200D01*
X168071800Y-110921717D01*
D18*
G36*
X179324000Y-120269786D02*
X176669440Y-120286274D01*
X176669440Y-118719600D01*
X176669440Y-116687600D01*
X176622463Y-116445477D01*
X176482673Y-116232673D01*
X176271640Y-116090223D01*
X176022000Y-116040160D01*
X173990000Y-116040160D01*
X173747877Y-116087137D01*
X173535073Y-116226927D01*
X173427262Y-116386643D01*
X173330818Y-116297215D01*
X172848944Y-116097625D01*
X172593000Y-116216764D01*
X172593000Y-117576600D01*
X172613000Y-117576600D01*
X172613000Y-117830600D01*
X172593000Y-117830600D01*
X172593000Y-119190436D01*
X172848944Y-119309575D01*
X173330818Y-119109985D01*
X173427835Y-119020025D01*
X173529327Y-119174527D01*
X173740360Y-119316977D01*
X173990000Y-119367040D01*
X176022000Y-119367040D01*
X176264123Y-119320063D01*
X176476927Y-119180273D01*
X176619377Y-118969240D01*
X176669440Y-118719600D01*
X176669440Y-120286274D01*
X172339000Y-120313171D01*
X172339000Y-119190436D01*
X172339000Y-117830600D01*
X172339000Y-117576600D01*
X172339000Y-116216764D01*
X172083056Y-116097625D01*
X171601182Y-116297215D01*
X171128812Y-116735221D01*
X170860017Y-117320654D01*
X170978633Y-117576600D01*
X172339000Y-117576600D01*
X172339000Y-117830600D01*
X170978633Y-117830600D01*
X170860017Y-118086546D01*
X171128812Y-118671979D01*
X171601182Y-119109985D01*
X172083056Y-119309575D01*
X172339000Y-119190436D01*
X172339000Y-120313171D01*
X159131000Y-120395209D01*
X159131000Y-111760000D01*
X168973500Y-111760000D01*
X168973500Y-106426000D01*
X159194500Y-106426000D01*
X159194500Y-99822000D01*
X159194500Y-99568000D01*
X159194500Y-97345500D01*
X179260500Y-97345500D01*
X179260500Y-97598422D01*
X178935185Y-97463682D01*
X178721000Y-97586344D01*
X178721000Y-98679000D01*
X178741000Y-98679000D01*
X178741000Y-98933000D01*
X178721000Y-98933000D01*
X178721000Y-100025656D01*
X178935185Y-100148318D01*
X179260500Y-100013577D01*
X179260500Y-106426000D01*
X178467000Y-106426000D01*
X178467000Y-100025656D01*
X178467000Y-98933000D01*
X178467000Y-98679000D01*
X178467000Y-97586344D01*
X178252815Y-97463682D01*
X177886086Y-97615575D01*
X177484417Y-97977098D01*
X177251672Y-98464813D01*
X177373575Y-98679000D01*
X178467000Y-98679000D01*
X178467000Y-98933000D01*
X177373575Y-98933000D01*
X177251672Y-99147187D01*
X177484417Y-99634902D01*
X177886086Y-99996425D01*
X178252815Y-100148318D01*
X178467000Y-100025656D01*
X178467000Y-106426000D01*
X170878500Y-106426000D01*
X170878500Y-111760000D01*
X179324000Y-111760000D01*
X179324000Y-120269786D01*
X179324000Y-120269786D01*
G37*
X179324000Y-120269786D02*
X176669440Y-120286274D01*
X176669440Y-118719600D01*
X176669440Y-116687600D01*
X176622463Y-116445477D01*
X176482673Y-116232673D01*
X176271640Y-116090223D01*
X176022000Y-116040160D01*
X173990000Y-116040160D01*
X173747877Y-116087137D01*
X173535073Y-116226927D01*
X173427262Y-116386643D01*
X173330818Y-116297215D01*
X172848944Y-116097625D01*
X172593000Y-116216764D01*
X172593000Y-117576600D01*
X172613000Y-117576600D01*
X172613000Y-117830600D01*
X172593000Y-117830600D01*
X172593000Y-119190436D01*
X172848944Y-119309575D01*
X173330818Y-119109985D01*
X173427835Y-119020025D01*
X173529327Y-119174527D01*
X173740360Y-119316977D01*
X173990000Y-119367040D01*
X176022000Y-119367040D01*
X176264123Y-119320063D01*
X176476927Y-119180273D01*
X176619377Y-118969240D01*
X176669440Y-118719600D01*
X176669440Y-120286274D01*
X172339000Y-120313171D01*
X172339000Y-119190436D01*
X172339000Y-117830600D01*
X172339000Y-117576600D01*
X172339000Y-116216764D01*
X172083056Y-116097625D01*
X171601182Y-116297215D01*
X171128812Y-116735221D01*
X170860017Y-117320654D01*
X170978633Y-117576600D01*
X172339000Y-117576600D01*
X172339000Y-117830600D01*
X170978633Y-117830600D01*
X170860017Y-118086546D01*
X171128812Y-118671979D01*
X171601182Y-119109985D01*
X172083056Y-119309575D01*
X172339000Y-119190436D01*
X172339000Y-120313171D01*
X159131000Y-120395209D01*
X159131000Y-111760000D01*
X168973500Y-111760000D01*
X168973500Y-106426000D01*
X159194500Y-106426000D01*
X159194500Y-99822000D01*
X159194500Y-99568000D01*
X159194500Y-97345500D01*
X179260500Y-97345500D01*
X179260500Y-97598422D01*
X178935185Y-97463682D01*
X178721000Y-97586344D01*
X178721000Y-98679000D01*
X178741000Y-98679000D01*
X178741000Y-98933000D01*
X178721000Y-98933000D01*
X178721000Y-100025656D01*
X178935185Y-100148318D01*
X179260500Y-100013577D01*
X179260500Y-106426000D01*
X178467000Y-106426000D01*
X178467000Y-100025656D01*
X178467000Y-98933000D01*
X178467000Y-98679000D01*
X178467000Y-97586344D01*
X178252815Y-97463682D01*
X177886086Y-97615575D01*
X177484417Y-97977098D01*
X177251672Y-98464813D01*
X177373575Y-98679000D01*
X178467000Y-98679000D01*
X178467000Y-98933000D01*
X177373575Y-98933000D01*
X177251672Y-99147187D01*
X177484417Y-99634902D01*
X177886086Y-99996425D01*
X178252815Y-100148318D01*
X178467000Y-100025656D01*
X178467000Y-106426000D01*
X170878500Y-106426000D01*
X170878500Y-111760000D01*
X179324000Y-111760000D01*
X179324000Y-120269786D01*
G36*
X189204600Y-110464600D02*
X181725000Y-110464600D01*
X181725000Y-99631786D01*
X181725000Y-99028250D01*
X181725000Y-98583750D01*
X181725000Y-97980214D01*
X181666996Y-97840180D01*
X181559819Y-97733004D01*
X181419785Y-97675000D01*
X181268214Y-97675000D01*
X180816250Y-97675000D01*
X180721000Y-97770250D01*
X180721000Y-98679000D01*
X181629750Y-98679000D01*
X181725000Y-98583750D01*
X181725000Y-99028250D01*
X181629750Y-98933000D01*
X180721000Y-98933000D01*
X180721000Y-99841750D01*
X180816250Y-99937000D01*
X181268214Y-99937000D01*
X181419785Y-99937000D01*
X181559819Y-99878996D01*
X181666996Y-99771820D01*
X181725000Y-99631786D01*
X181725000Y-110464600D01*
X171881800Y-110464600D01*
X171881800Y-107264200D01*
X180162870Y-107264200D01*
X180124305Y-99937000D01*
X180371750Y-99937000D01*
X180467000Y-99841750D01*
X180467000Y-98933000D01*
X180447000Y-98933000D01*
X180447000Y-98679000D01*
X180467000Y-98679000D01*
X180467000Y-97770250D01*
X180371750Y-97675000D01*
X180112400Y-97675000D01*
X180112070Y-97612200D01*
X189204600Y-97612200D01*
X189204600Y-110464600D01*
X189204600Y-110464600D01*
G37*
X189204600Y-110464600D02*
X181725000Y-110464600D01*
X181725000Y-99631786D01*
X181725000Y-99028250D01*
X181725000Y-98583750D01*
X181725000Y-97980214D01*
X181666996Y-97840180D01*
X181559819Y-97733004D01*
X181419785Y-97675000D01*
X181268214Y-97675000D01*
X180816250Y-97675000D01*
X180721000Y-97770250D01*
X180721000Y-98679000D01*
X181629750Y-98679000D01*
X181725000Y-98583750D01*
X181725000Y-99028250D01*
X181629750Y-98933000D01*
X180721000Y-98933000D01*
X180721000Y-99841750D01*
X180816250Y-99937000D01*
X181268214Y-99937000D01*
X181419785Y-99937000D01*
X181559819Y-99878996D01*
X181666996Y-99771820D01*
X181725000Y-99631786D01*
X181725000Y-110464600D01*
X171881800Y-110464600D01*
X171881800Y-107264200D01*
X180162870Y-107264200D01*
X180124305Y-99937000D01*
X180371750Y-99937000D01*
X180467000Y-99841750D01*
X180467000Y-98933000D01*
X180447000Y-98933000D01*
X180447000Y-98679000D01*
X180467000Y-98679000D01*
X180467000Y-97770250D01*
X180371750Y-97675000D01*
X180112400Y-97675000D01*
X180112070Y-97612200D01*
X189204600Y-97612200D01*
X189204600Y-110464600D01*
M02*
