G04 #@! TF.FileFunction,Legend,Top*
%FSLAX46Y46*%
G04 Gerber Fmt 4.6, Leading zero omitted, Abs format (unit mm)*
G04 Created by KiCad (PCBNEW 0.201503210816+5526~22~ubuntu14.10.1-product) date Sun 22 Mar 2015 03:55:30 PM EDT*
%MOMM*%
G01*
G04 APERTURE LIST*
%ADD10C,0.100000*%
%ADD11C,0.150000*%
%ADD12R,2.000000X1.600000*%
%ADD13R,1.198880X1.198880*%
%ADD14R,1.500000X1.300000*%
%ADD15R,1.300000X1.500000*%
%ADD16R,1.400000X0.300000*%
%ADD17R,2.032000X2.032000*%
%ADD18O,2.032000X2.032000*%
%ADD19R,0.400000X1.350000*%
%ADD20R,1.600000X1.400000*%
%ADD21R,1.900000X1.900000*%
%ADD22C,1.600000*%
%ADD23R,1.500000X1.500000*%
%ADD24O,1.500000X1.500000*%
G04 APERTURE END LIST*
D10*
D11*
X159724600Y-104603440D02*
X157724600Y-104603440D01*
X157724600Y-106653440D02*
X159724600Y-106653440D01*
X178730400Y-106282600D02*
X180730400Y-106282600D01*
X180730400Y-104232600D02*
X178730400Y-104232600D01*
X185176160Y-118064280D02*
X185176160Y-117739160D01*
X185176160Y-117739160D02*
X184675780Y-117739160D01*
X184675780Y-118064280D02*
X184675780Y-117739160D01*
X185176160Y-118064280D02*
X184675780Y-118064280D01*
X185176160Y-118686580D02*
X185176160Y-118536720D01*
X185176160Y-118536720D02*
X184924700Y-118536720D01*
X184924700Y-118686580D02*
X184924700Y-118536720D01*
X185176160Y-118686580D02*
X184924700Y-118686580D01*
X185176160Y-118191280D02*
X185176160Y-118041420D01*
X185176160Y-118041420D02*
X184924700Y-118041420D01*
X184924700Y-118191280D02*
X184924700Y-118041420D01*
X185176160Y-118191280D02*
X184924700Y-118191280D01*
X185176160Y-118562120D02*
X185176160Y-118165880D01*
X185176160Y-118165880D02*
X185000900Y-118165880D01*
X185000900Y-118562120D02*
X185000900Y-118165880D01*
X185176160Y-118562120D02*
X185000900Y-118562120D01*
X186672220Y-118064280D02*
X186672220Y-117739160D01*
X186672220Y-117739160D02*
X186171840Y-117739160D01*
X186171840Y-118064280D02*
X186171840Y-117739160D01*
X186672220Y-118064280D02*
X186171840Y-118064280D01*
X186672220Y-118988840D02*
X186672220Y-118663720D01*
X186672220Y-118663720D02*
X186171840Y-118663720D01*
X186171840Y-118988840D02*
X186171840Y-118663720D01*
X186672220Y-118988840D02*
X186171840Y-118988840D01*
X186423300Y-118191280D02*
X186423300Y-118041420D01*
X186423300Y-118041420D02*
X186171840Y-118041420D01*
X186171840Y-118191280D02*
X186171840Y-118041420D01*
X186423300Y-118191280D02*
X186171840Y-118191280D01*
X186423300Y-118686580D02*
X186423300Y-118536720D01*
X186423300Y-118536720D02*
X186171840Y-118536720D01*
X186171840Y-118686580D02*
X186171840Y-118536720D01*
X186423300Y-118686580D02*
X186171840Y-118686580D01*
X186347100Y-118562120D02*
X186347100Y-118165880D01*
X186347100Y-118165880D02*
X186171840Y-118165880D01*
X186171840Y-118562120D02*
X186171840Y-118165880D01*
X186347100Y-118562120D02*
X186171840Y-118562120D01*
X185674000Y-118463060D02*
X185674000Y-118264940D01*
X185674000Y-118264940D02*
X185475880Y-118264940D01*
X185475880Y-118463060D02*
X185475880Y-118264940D01*
X185674000Y-118463060D02*
X185475880Y-118463060D01*
X185176160Y-118963440D02*
X185176160Y-118663720D01*
X185176160Y-118663720D02*
X184876440Y-118663720D01*
X184876440Y-118963440D02*
X184876440Y-118663720D01*
X185176160Y-118963440D02*
X184876440Y-118963440D01*
X184749440Y-118988840D02*
X184749440Y-118762780D01*
X184749440Y-118762780D02*
X184675780Y-118762780D01*
X184675780Y-118988840D02*
X184675780Y-118762780D01*
X184749440Y-118988840D02*
X184675780Y-118988840D01*
X185150760Y-117789960D02*
X186197240Y-117789960D01*
X186171840Y-118938040D02*
X184749440Y-118938040D01*
X184897482Y-118813580D02*
G75*
G03X184897482Y-118813580I-71842J0D01*
G01*
X184675780Y-118711980D02*
G75*
G03X184675780Y-118016020I0J347980D01*
G01*
X186672220Y-118016020D02*
G75*
G03X186672220Y-118711980I0J-347980D01*
G01*
X151564340Y-115298220D02*
X151564340Y-115623340D01*
X151564340Y-115623340D02*
X152064720Y-115623340D01*
X152064720Y-115298220D02*
X152064720Y-115623340D01*
X151564340Y-115298220D02*
X152064720Y-115298220D01*
X151564340Y-114675920D02*
X151564340Y-114825780D01*
X151564340Y-114825780D02*
X151815800Y-114825780D01*
X151815800Y-114675920D02*
X151815800Y-114825780D01*
X151564340Y-114675920D02*
X151815800Y-114675920D01*
X151564340Y-115171220D02*
X151564340Y-115321080D01*
X151564340Y-115321080D02*
X151815800Y-115321080D01*
X151815800Y-115171220D02*
X151815800Y-115321080D01*
X151564340Y-115171220D02*
X151815800Y-115171220D01*
X151564340Y-114800380D02*
X151564340Y-115196620D01*
X151564340Y-115196620D02*
X151739600Y-115196620D01*
X151739600Y-114800380D02*
X151739600Y-115196620D01*
X151564340Y-114800380D02*
X151739600Y-114800380D01*
X150068280Y-115298220D02*
X150068280Y-115623340D01*
X150068280Y-115623340D02*
X150568660Y-115623340D01*
X150568660Y-115298220D02*
X150568660Y-115623340D01*
X150068280Y-115298220D02*
X150568660Y-115298220D01*
X150068280Y-114373660D02*
X150068280Y-114698780D01*
X150068280Y-114698780D02*
X150568660Y-114698780D01*
X150568660Y-114373660D02*
X150568660Y-114698780D01*
X150068280Y-114373660D02*
X150568660Y-114373660D01*
X150317200Y-115171220D02*
X150317200Y-115321080D01*
X150317200Y-115321080D02*
X150568660Y-115321080D01*
X150568660Y-115171220D02*
X150568660Y-115321080D01*
X150317200Y-115171220D02*
X150568660Y-115171220D01*
X150317200Y-114675920D02*
X150317200Y-114825780D01*
X150317200Y-114825780D02*
X150568660Y-114825780D01*
X150568660Y-114675920D02*
X150568660Y-114825780D01*
X150317200Y-114675920D02*
X150568660Y-114675920D01*
X150393400Y-114800380D02*
X150393400Y-115196620D01*
X150393400Y-115196620D02*
X150568660Y-115196620D01*
X150568660Y-114800380D02*
X150568660Y-115196620D01*
X150393400Y-114800380D02*
X150568660Y-114800380D01*
X151066500Y-114899440D02*
X151066500Y-115097560D01*
X151066500Y-115097560D02*
X151264620Y-115097560D01*
X151264620Y-114899440D02*
X151264620Y-115097560D01*
X151066500Y-114899440D02*
X151264620Y-114899440D01*
X151564340Y-114399060D02*
X151564340Y-114698780D01*
X151564340Y-114698780D02*
X151864060Y-114698780D01*
X151864060Y-114399060D02*
X151864060Y-114698780D01*
X151564340Y-114399060D02*
X151864060Y-114399060D01*
X151991060Y-114373660D02*
X151991060Y-114599720D01*
X151991060Y-114599720D02*
X152064720Y-114599720D01*
X152064720Y-114373660D02*
X152064720Y-114599720D01*
X151991060Y-114373660D02*
X152064720Y-114373660D01*
X151589740Y-115572540D02*
X150543260Y-115572540D01*
X150568660Y-114424460D02*
X151991060Y-114424460D01*
X151986702Y-114548920D02*
G75*
G03X151986702Y-114548920I-71842J0D01*
G01*
X152064720Y-114650520D02*
G75*
G03X152064720Y-115346480I0J-347980D01*
G01*
X150068280Y-115346480D02*
G75*
G03X150068280Y-114650520I0J347980D01*
G01*
X151564340Y-112440720D02*
X151564340Y-112765840D01*
X151564340Y-112765840D02*
X152064720Y-112765840D01*
X152064720Y-112440720D02*
X152064720Y-112765840D01*
X151564340Y-112440720D02*
X152064720Y-112440720D01*
X151564340Y-111818420D02*
X151564340Y-111968280D01*
X151564340Y-111968280D02*
X151815800Y-111968280D01*
X151815800Y-111818420D02*
X151815800Y-111968280D01*
X151564340Y-111818420D02*
X151815800Y-111818420D01*
X151564340Y-112313720D02*
X151564340Y-112463580D01*
X151564340Y-112463580D02*
X151815800Y-112463580D01*
X151815800Y-112313720D02*
X151815800Y-112463580D01*
X151564340Y-112313720D02*
X151815800Y-112313720D01*
X151564340Y-111942880D02*
X151564340Y-112339120D01*
X151564340Y-112339120D02*
X151739600Y-112339120D01*
X151739600Y-111942880D02*
X151739600Y-112339120D01*
X151564340Y-111942880D02*
X151739600Y-111942880D01*
X150068280Y-112440720D02*
X150068280Y-112765840D01*
X150068280Y-112765840D02*
X150568660Y-112765840D01*
X150568660Y-112440720D02*
X150568660Y-112765840D01*
X150068280Y-112440720D02*
X150568660Y-112440720D01*
X150068280Y-111516160D02*
X150068280Y-111841280D01*
X150068280Y-111841280D02*
X150568660Y-111841280D01*
X150568660Y-111516160D02*
X150568660Y-111841280D01*
X150068280Y-111516160D02*
X150568660Y-111516160D01*
X150317200Y-112313720D02*
X150317200Y-112463580D01*
X150317200Y-112463580D02*
X150568660Y-112463580D01*
X150568660Y-112313720D02*
X150568660Y-112463580D01*
X150317200Y-112313720D02*
X150568660Y-112313720D01*
X150317200Y-111818420D02*
X150317200Y-111968280D01*
X150317200Y-111968280D02*
X150568660Y-111968280D01*
X150568660Y-111818420D02*
X150568660Y-111968280D01*
X150317200Y-111818420D02*
X150568660Y-111818420D01*
X150393400Y-111942880D02*
X150393400Y-112339120D01*
X150393400Y-112339120D02*
X150568660Y-112339120D01*
X150568660Y-111942880D02*
X150568660Y-112339120D01*
X150393400Y-111942880D02*
X150568660Y-111942880D01*
X151066500Y-112041940D02*
X151066500Y-112240060D01*
X151066500Y-112240060D02*
X151264620Y-112240060D01*
X151264620Y-112041940D02*
X151264620Y-112240060D01*
X151066500Y-112041940D02*
X151264620Y-112041940D01*
X151564340Y-111541560D02*
X151564340Y-111841280D01*
X151564340Y-111841280D02*
X151864060Y-111841280D01*
X151864060Y-111541560D02*
X151864060Y-111841280D01*
X151564340Y-111541560D02*
X151864060Y-111541560D01*
X151991060Y-111516160D02*
X151991060Y-111742220D01*
X151991060Y-111742220D02*
X152064720Y-111742220D01*
X152064720Y-111516160D02*
X152064720Y-111742220D01*
X151991060Y-111516160D02*
X152064720Y-111516160D01*
X151589740Y-112715040D02*
X150543260Y-112715040D01*
X150568660Y-111566960D02*
X151991060Y-111566960D01*
X151986702Y-111691420D02*
G75*
G03X151986702Y-111691420I-71842J0D01*
G01*
X152064720Y-111793020D02*
G75*
G03X152064720Y-112488980I0J-347980D01*
G01*
X150068280Y-112488980D02*
G75*
G03X150068280Y-111793020I0J347980D01*
G01*
X155356000Y-111266000D02*
X156556000Y-111266000D01*
X156556000Y-113016000D02*
X155356000Y-113016000D01*
X155419500Y-114060000D02*
X156619500Y-114060000D01*
X156619500Y-115810000D02*
X155419500Y-115810000D01*
X180100000Y-117567000D02*
X180100000Y-116367000D01*
X181850000Y-116367000D02*
X181850000Y-117567000D01*
X177687000Y-117592400D02*
X177687000Y-116392400D01*
X179437000Y-116392400D02*
X179437000Y-117592400D01*
X176057000Y-110123000D02*
X177257000Y-110123000D01*
X177257000Y-111873000D02*
X176057000Y-111873000D01*
X174132800Y-115683000D02*
X172932800Y-115683000D01*
X172932800Y-113933000D02*
X174132800Y-113933000D01*
X149409120Y-104886200D02*
X149409120Y-106086200D01*
X147659120Y-106086200D02*
X147659120Y-104886200D01*
X151837360Y-104820160D02*
X151837360Y-106020160D01*
X150087360Y-106020160D02*
X150087360Y-104820160D01*
X154214800Y-104886200D02*
X154214800Y-106086200D01*
X152464800Y-106086200D02*
X152464800Y-104886200D01*
X168251000Y-109323000D02*
X168251000Y-109623000D01*
X171601000Y-109323000D02*
X171601000Y-109623000D01*
X171601000Y-112673000D02*
X171601000Y-112373000D01*
X168251000Y-112673000D02*
X168251000Y-112373000D01*
X168251000Y-109323000D02*
X171601000Y-109323000D01*
X168251000Y-112673000D02*
X171601000Y-112673000D01*
X168251000Y-109623000D02*
X167026000Y-109623000D01*
X173736000Y-118973600D02*
X171196000Y-118973600D01*
X176556000Y-119253600D02*
X175006000Y-119253600D01*
X173736000Y-118973600D02*
X173736000Y-116433600D01*
X175006000Y-116153600D02*
X176556000Y-116153600D01*
X176556000Y-116153600D02*
X176556000Y-119253600D01*
X173736000Y-116433600D02*
X171196000Y-116433600D01*
X171196000Y-116433600D02*
X171196000Y-118973600D01*
X157605553Y-103685583D02*
X157557934Y-103733202D01*
X157415077Y-103780821D01*
X157319839Y-103780821D01*
X157176981Y-103733202D01*
X157081743Y-103637964D01*
X157034124Y-103542726D01*
X156986505Y-103352250D01*
X156986505Y-103209392D01*
X157034124Y-103018916D01*
X157081743Y-102923678D01*
X157176981Y-102828440D01*
X157319839Y-102780821D01*
X157415077Y-102780821D01*
X157557934Y-102828440D01*
X157605553Y-102876059D01*
X158557934Y-103780821D02*
X157986505Y-103780821D01*
X158272219Y-103780821D02*
X158272219Y-102780821D01*
X158176981Y-102923678D01*
X158081743Y-103018916D01*
X157986505Y-103066535D01*
X159176981Y-102780821D02*
X159272220Y-102780821D01*
X159367458Y-102828440D01*
X159415077Y-102876059D01*
X159462696Y-102971297D01*
X159510315Y-103161773D01*
X159510315Y-103399869D01*
X159462696Y-103590345D01*
X159415077Y-103685583D01*
X159367458Y-103733202D01*
X159272220Y-103780821D01*
X159176981Y-103780821D01*
X159081743Y-103733202D01*
X159034124Y-103685583D01*
X158986505Y-103590345D01*
X158938886Y-103399869D01*
X158938886Y-103161773D01*
X158986505Y-102971297D01*
X159034124Y-102876059D01*
X159081743Y-102828440D01*
X159176981Y-102780821D01*
X160462696Y-103780821D02*
X159891267Y-103780821D01*
X160176981Y-103780821D02*
X160176981Y-102780821D01*
X160081743Y-102923678D01*
X159986505Y-103018916D01*
X159891267Y-103066535D01*
X178484353Y-103709743D02*
X178436734Y-103757362D01*
X178293877Y-103804981D01*
X178198639Y-103804981D01*
X178055781Y-103757362D01*
X177960543Y-103662124D01*
X177912924Y-103566886D01*
X177865305Y-103376410D01*
X177865305Y-103233552D01*
X177912924Y-103043076D01*
X177960543Y-102947838D01*
X178055781Y-102852600D01*
X178198639Y-102804981D01*
X178293877Y-102804981D01*
X178436734Y-102852600D01*
X178484353Y-102900219D01*
X179436734Y-103804981D02*
X178865305Y-103804981D01*
X179151019Y-103804981D02*
X179151019Y-102804981D01*
X179055781Y-102947838D01*
X178960543Y-103043076D01*
X178865305Y-103090695D01*
X180055781Y-102804981D02*
X180151020Y-102804981D01*
X180246258Y-102852600D01*
X180293877Y-102900219D01*
X180341496Y-102995457D01*
X180389115Y-103185933D01*
X180389115Y-103424029D01*
X180341496Y-103614505D01*
X180293877Y-103709743D01*
X180246258Y-103757362D01*
X180151020Y-103804981D01*
X180055781Y-103804981D01*
X179960543Y-103757362D01*
X179912924Y-103709743D01*
X179865305Y-103614505D01*
X179817686Y-103424029D01*
X179817686Y-103185933D01*
X179865305Y-102995457D01*
X179912924Y-102900219D01*
X179960543Y-102852600D01*
X180055781Y-102804981D01*
X180770067Y-102900219D02*
X180817686Y-102852600D01*
X180912924Y-102804981D01*
X181151020Y-102804981D01*
X181246258Y-102852600D01*
X181293877Y-102900219D01*
X181341496Y-102995457D01*
X181341496Y-103090695D01*
X181293877Y-103233552D01*
X180722448Y-103804981D01*
X181341496Y-103804981D01*
X185253524Y-117292381D02*
X185253524Y-116292381D01*
X185491619Y-116292381D01*
X185634477Y-116340000D01*
X185729715Y-116435238D01*
X185777334Y-116530476D01*
X185824953Y-116720952D01*
X185824953Y-116863810D01*
X185777334Y-117054286D01*
X185729715Y-117149524D01*
X185634477Y-117244762D01*
X185491619Y-117292381D01*
X185253524Y-117292381D01*
X186777334Y-117292381D02*
X186205905Y-117292381D01*
X186491619Y-117292381D02*
X186491619Y-116292381D01*
X186396381Y-116435238D01*
X186301143Y-116530476D01*
X186205905Y-116578095D01*
X187396381Y-116292381D02*
X187491620Y-116292381D01*
X187586858Y-116340000D01*
X187634477Y-116387619D01*
X187682096Y-116482857D01*
X187729715Y-116673333D01*
X187729715Y-116911429D01*
X187682096Y-117101905D01*
X187634477Y-117197143D01*
X187586858Y-117244762D01*
X187491620Y-117292381D01*
X187396381Y-117292381D01*
X187301143Y-117244762D01*
X187253524Y-117197143D01*
X187205905Y-117101905D01*
X187158286Y-116911429D01*
X187158286Y-116673333D01*
X187205905Y-116482857D01*
X187253524Y-116387619D01*
X187301143Y-116340000D01*
X187396381Y-116292381D01*
X188682096Y-117292381D02*
X188110667Y-117292381D01*
X188396381Y-117292381D02*
X188396381Y-116292381D01*
X188301143Y-116435238D01*
X188205905Y-116530476D01*
X188110667Y-116578095D01*
X149376024Y-117165381D02*
X149376024Y-116165381D01*
X149614119Y-116165381D01*
X149756977Y-116213000D01*
X149852215Y-116308238D01*
X149899834Y-116403476D01*
X149947453Y-116593952D01*
X149947453Y-116736810D01*
X149899834Y-116927286D01*
X149852215Y-117022524D01*
X149756977Y-117117762D01*
X149614119Y-117165381D01*
X149376024Y-117165381D01*
X150899834Y-117165381D02*
X150328405Y-117165381D01*
X150614119Y-117165381D02*
X150614119Y-116165381D01*
X150518881Y-116308238D01*
X150423643Y-116403476D01*
X150328405Y-116451095D01*
X151518881Y-116165381D02*
X151614120Y-116165381D01*
X151709358Y-116213000D01*
X151756977Y-116260619D01*
X151804596Y-116355857D01*
X151852215Y-116546333D01*
X151852215Y-116784429D01*
X151804596Y-116974905D01*
X151756977Y-117070143D01*
X151709358Y-117117762D01*
X151614120Y-117165381D01*
X151518881Y-117165381D01*
X151423643Y-117117762D01*
X151376024Y-117070143D01*
X151328405Y-116974905D01*
X151280786Y-116784429D01*
X151280786Y-116546333D01*
X151328405Y-116355857D01*
X151376024Y-116260619D01*
X151423643Y-116213000D01*
X151518881Y-116165381D01*
X152233167Y-116260619D02*
X152280786Y-116213000D01*
X152376024Y-116165381D01*
X152614120Y-116165381D01*
X152709358Y-116213000D01*
X152756977Y-116260619D01*
X152804596Y-116355857D01*
X152804596Y-116451095D01*
X152756977Y-116593952D01*
X152185548Y-117165381D01*
X152804596Y-117165381D01*
X149376024Y-110561381D02*
X149376024Y-109561381D01*
X149614119Y-109561381D01*
X149756977Y-109609000D01*
X149852215Y-109704238D01*
X149899834Y-109799476D01*
X149947453Y-109989952D01*
X149947453Y-110132810D01*
X149899834Y-110323286D01*
X149852215Y-110418524D01*
X149756977Y-110513762D01*
X149614119Y-110561381D01*
X149376024Y-110561381D01*
X150899834Y-110561381D02*
X150328405Y-110561381D01*
X150614119Y-110561381D02*
X150614119Y-109561381D01*
X150518881Y-109704238D01*
X150423643Y-109799476D01*
X150328405Y-109847095D01*
X151518881Y-109561381D02*
X151614120Y-109561381D01*
X151709358Y-109609000D01*
X151756977Y-109656619D01*
X151804596Y-109751857D01*
X151852215Y-109942333D01*
X151852215Y-110180429D01*
X151804596Y-110370905D01*
X151756977Y-110466143D01*
X151709358Y-110513762D01*
X151614120Y-110561381D01*
X151518881Y-110561381D01*
X151423643Y-110513762D01*
X151376024Y-110466143D01*
X151328405Y-110370905D01*
X151280786Y-110180429D01*
X151280786Y-109942333D01*
X151328405Y-109751857D01*
X151376024Y-109656619D01*
X151423643Y-109609000D01*
X151518881Y-109561381D01*
X152185548Y-109561381D02*
X152804596Y-109561381D01*
X152471262Y-109942333D01*
X152614120Y-109942333D01*
X152709358Y-109989952D01*
X152756977Y-110037571D01*
X152804596Y-110132810D01*
X152804596Y-110370905D01*
X152756977Y-110466143D01*
X152709358Y-110513762D01*
X152614120Y-110561381D01*
X152328405Y-110561381D01*
X152233167Y-110513762D01*
X152185548Y-110466143D01*
X154900453Y-110497881D02*
X154567119Y-110021690D01*
X154329024Y-110497881D02*
X154329024Y-109497881D01*
X154709977Y-109497881D01*
X154805215Y-109545500D01*
X154852834Y-109593119D01*
X154900453Y-109688357D01*
X154900453Y-109831214D01*
X154852834Y-109926452D01*
X154805215Y-109974071D01*
X154709977Y-110021690D01*
X154329024Y-110021690D01*
X155852834Y-110497881D02*
X155281405Y-110497881D01*
X155567119Y-110497881D02*
X155567119Y-109497881D01*
X155471881Y-109640738D01*
X155376643Y-109735976D01*
X155281405Y-109783595D01*
X156471881Y-109497881D02*
X156567120Y-109497881D01*
X156662358Y-109545500D01*
X156709977Y-109593119D01*
X156757596Y-109688357D01*
X156805215Y-109878833D01*
X156805215Y-110116929D01*
X156757596Y-110307405D01*
X156709977Y-110402643D01*
X156662358Y-110450262D01*
X156567120Y-110497881D01*
X156471881Y-110497881D01*
X156376643Y-110450262D01*
X156329024Y-110402643D01*
X156281405Y-110307405D01*
X156233786Y-110116929D01*
X156233786Y-109878833D01*
X156281405Y-109688357D01*
X156329024Y-109593119D01*
X156376643Y-109545500D01*
X156471881Y-109497881D01*
X157757596Y-110497881D02*
X157186167Y-110497881D01*
X157471881Y-110497881D02*
X157471881Y-109497881D01*
X157376643Y-109640738D01*
X157281405Y-109735976D01*
X157186167Y-109783595D01*
X155027453Y-117228881D02*
X154694119Y-116752690D01*
X154456024Y-117228881D02*
X154456024Y-116228881D01*
X154836977Y-116228881D01*
X154932215Y-116276500D01*
X154979834Y-116324119D01*
X155027453Y-116419357D01*
X155027453Y-116562214D01*
X154979834Y-116657452D01*
X154932215Y-116705071D01*
X154836977Y-116752690D01*
X154456024Y-116752690D01*
X155979834Y-117228881D02*
X155408405Y-117228881D01*
X155694119Y-117228881D02*
X155694119Y-116228881D01*
X155598881Y-116371738D01*
X155503643Y-116466976D01*
X155408405Y-116514595D01*
X156598881Y-116228881D02*
X156694120Y-116228881D01*
X156789358Y-116276500D01*
X156836977Y-116324119D01*
X156884596Y-116419357D01*
X156932215Y-116609833D01*
X156932215Y-116847929D01*
X156884596Y-117038405D01*
X156836977Y-117133643D01*
X156789358Y-117181262D01*
X156694120Y-117228881D01*
X156598881Y-117228881D01*
X156503643Y-117181262D01*
X156456024Y-117133643D01*
X156408405Y-117038405D01*
X156360786Y-116847929D01*
X156360786Y-116609833D01*
X156408405Y-116419357D01*
X156456024Y-116324119D01*
X156503643Y-116276500D01*
X156598881Y-116228881D01*
X157313167Y-116324119D02*
X157360786Y-116276500D01*
X157456024Y-116228881D01*
X157694120Y-116228881D01*
X157789358Y-116276500D01*
X157836977Y-116324119D01*
X157884596Y-116419357D01*
X157884596Y-116514595D01*
X157836977Y-116657452D01*
X157265548Y-117228881D01*
X157884596Y-117228881D01*
X183395881Y-118530547D02*
X182919690Y-118863881D01*
X183395881Y-119101976D02*
X182395881Y-119101976D01*
X182395881Y-118721023D01*
X182443500Y-118625785D01*
X182491119Y-118578166D01*
X182586357Y-118530547D01*
X182729214Y-118530547D01*
X182824452Y-118578166D01*
X182872071Y-118625785D01*
X182919690Y-118721023D01*
X182919690Y-119101976D01*
X183395881Y-117578166D02*
X183395881Y-118149595D01*
X183395881Y-117863881D02*
X182395881Y-117863881D01*
X182538738Y-117959119D01*
X182633976Y-118054357D01*
X182681595Y-118149595D01*
X182395881Y-116959119D02*
X182395881Y-116863880D01*
X182443500Y-116768642D01*
X182491119Y-116721023D01*
X182586357Y-116673404D01*
X182776833Y-116625785D01*
X183014929Y-116625785D01*
X183205405Y-116673404D01*
X183300643Y-116721023D01*
X183348262Y-116768642D01*
X183395881Y-116863880D01*
X183395881Y-116959119D01*
X183348262Y-117054357D01*
X183300643Y-117101976D01*
X183205405Y-117149595D01*
X183014929Y-117197214D01*
X182776833Y-117197214D01*
X182586357Y-117149595D01*
X182491119Y-117101976D01*
X182443500Y-117054357D01*
X182395881Y-116959119D01*
X182395881Y-116292452D02*
X182395881Y-115673404D01*
X182776833Y-116006738D01*
X182776833Y-115863880D01*
X182824452Y-115768642D01*
X182872071Y-115721023D01*
X182967310Y-115673404D01*
X183205405Y-115673404D01*
X183300643Y-115721023D01*
X183348262Y-115768642D01*
X183395881Y-115863880D01*
X183395881Y-116149595D01*
X183348262Y-116244833D01*
X183300643Y-116292452D01*
X179982953Y-111450381D02*
X179649619Y-110974190D01*
X179411524Y-111450381D02*
X179411524Y-110450381D01*
X179792477Y-110450381D01*
X179887715Y-110498000D01*
X179935334Y-110545619D01*
X179982953Y-110640857D01*
X179982953Y-110783714D01*
X179935334Y-110878952D01*
X179887715Y-110926571D01*
X179792477Y-110974190D01*
X179411524Y-110974190D01*
X180935334Y-111450381D02*
X180363905Y-111450381D01*
X180649619Y-111450381D02*
X180649619Y-110450381D01*
X180554381Y-110593238D01*
X180459143Y-110688476D01*
X180363905Y-110736095D01*
X181554381Y-110450381D02*
X181649620Y-110450381D01*
X181744858Y-110498000D01*
X181792477Y-110545619D01*
X181840096Y-110640857D01*
X181887715Y-110831333D01*
X181887715Y-111069429D01*
X181840096Y-111259905D01*
X181792477Y-111355143D01*
X181744858Y-111402762D01*
X181649620Y-111450381D01*
X181554381Y-111450381D01*
X181459143Y-111402762D01*
X181411524Y-111355143D01*
X181363905Y-111259905D01*
X181316286Y-111069429D01*
X181316286Y-110831333D01*
X181363905Y-110640857D01*
X181411524Y-110545619D01*
X181459143Y-110498000D01*
X181554381Y-110450381D01*
X182744858Y-110783714D02*
X182744858Y-111450381D01*
X182506762Y-110402762D02*
X182268667Y-111117048D01*
X182887715Y-111117048D01*
X175182353Y-109723181D02*
X174849019Y-109246990D01*
X174610924Y-109723181D02*
X174610924Y-108723181D01*
X174991877Y-108723181D01*
X175087115Y-108770800D01*
X175134734Y-108818419D01*
X175182353Y-108913657D01*
X175182353Y-109056514D01*
X175134734Y-109151752D01*
X175087115Y-109199371D01*
X174991877Y-109246990D01*
X174610924Y-109246990D01*
X176134734Y-109723181D02*
X175563305Y-109723181D01*
X175849019Y-109723181D02*
X175849019Y-108723181D01*
X175753781Y-108866038D01*
X175658543Y-108961276D01*
X175563305Y-109008895D01*
X176753781Y-108723181D02*
X176849020Y-108723181D01*
X176944258Y-108770800D01*
X176991877Y-108818419D01*
X177039496Y-108913657D01*
X177087115Y-109104133D01*
X177087115Y-109342229D01*
X177039496Y-109532705D01*
X176991877Y-109627943D01*
X176944258Y-109675562D01*
X176849020Y-109723181D01*
X176753781Y-109723181D01*
X176658543Y-109675562D01*
X176610924Y-109627943D01*
X176563305Y-109532705D01*
X176515686Y-109342229D01*
X176515686Y-109104133D01*
X176563305Y-108913657D01*
X176610924Y-108818419D01*
X176658543Y-108770800D01*
X176753781Y-108723181D01*
X177991877Y-108723181D02*
X177515686Y-108723181D01*
X177468067Y-109199371D01*
X177515686Y-109151752D01*
X177610924Y-109104133D01*
X177849020Y-109104133D01*
X177944258Y-109151752D01*
X177991877Y-109199371D01*
X178039496Y-109294610D01*
X178039496Y-109532705D01*
X177991877Y-109627943D01*
X177944258Y-109675562D01*
X177849020Y-109723181D01*
X177610924Y-109723181D01*
X177515686Y-109675562D01*
X177468067Y-109627943D01*
X172413753Y-113160381D02*
X172080419Y-112684190D01*
X171842324Y-113160381D02*
X171842324Y-112160381D01*
X172223277Y-112160381D01*
X172318515Y-112208000D01*
X172366134Y-112255619D01*
X172413753Y-112350857D01*
X172413753Y-112493714D01*
X172366134Y-112588952D01*
X172318515Y-112636571D01*
X172223277Y-112684190D01*
X171842324Y-112684190D01*
X173366134Y-113160381D02*
X172794705Y-113160381D01*
X173080419Y-113160381D02*
X173080419Y-112160381D01*
X172985181Y-112303238D01*
X172889943Y-112398476D01*
X172794705Y-112446095D01*
X173985181Y-112160381D02*
X174080420Y-112160381D01*
X174175658Y-112208000D01*
X174223277Y-112255619D01*
X174270896Y-112350857D01*
X174318515Y-112541333D01*
X174318515Y-112779429D01*
X174270896Y-112969905D01*
X174223277Y-113065143D01*
X174175658Y-113112762D01*
X174080420Y-113160381D01*
X173985181Y-113160381D01*
X173889943Y-113112762D01*
X173842324Y-113065143D01*
X173794705Y-112969905D01*
X173747086Y-112779429D01*
X173747086Y-112541333D01*
X173794705Y-112350857D01*
X173842324Y-112255619D01*
X173889943Y-112208000D01*
X173985181Y-112160381D01*
X175175658Y-112160381D02*
X174985181Y-112160381D01*
X174889943Y-112208000D01*
X174842324Y-112255619D01*
X174747086Y-112398476D01*
X174699467Y-112588952D01*
X174699467Y-112969905D01*
X174747086Y-113065143D01*
X174794705Y-113112762D01*
X174889943Y-113160381D01*
X175080420Y-113160381D01*
X175175658Y-113112762D01*
X175223277Y-113065143D01*
X175270896Y-112969905D01*
X175270896Y-112731810D01*
X175223277Y-112636571D01*
X175175658Y-112588952D01*
X175080420Y-112541333D01*
X174889943Y-112541333D01*
X174794705Y-112588952D01*
X174747086Y-112636571D01*
X174699467Y-112731810D01*
X146886501Y-106605247D02*
X146410310Y-106938581D01*
X146886501Y-107176676D02*
X145886501Y-107176676D01*
X145886501Y-106795723D01*
X145934120Y-106700485D01*
X145981739Y-106652866D01*
X146076977Y-106605247D01*
X146219834Y-106605247D01*
X146315072Y-106652866D01*
X146362691Y-106700485D01*
X146410310Y-106795723D01*
X146410310Y-107176676D01*
X146886501Y-105652866D02*
X146886501Y-106224295D01*
X146886501Y-105938581D02*
X145886501Y-105938581D01*
X146029358Y-106033819D01*
X146124596Y-106129057D01*
X146172215Y-106224295D01*
X145886501Y-105033819D02*
X145886501Y-104938580D01*
X145934120Y-104843342D01*
X145981739Y-104795723D01*
X146076977Y-104748104D01*
X146267453Y-104700485D01*
X146505549Y-104700485D01*
X146696025Y-104748104D01*
X146791263Y-104795723D01*
X146838882Y-104843342D01*
X146886501Y-104938580D01*
X146886501Y-105033819D01*
X146838882Y-105129057D01*
X146791263Y-105176676D01*
X146696025Y-105224295D01*
X146505549Y-105271914D01*
X146267453Y-105271914D01*
X146076977Y-105224295D01*
X145981739Y-105176676D01*
X145934120Y-105129057D01*
X145886501Y-105033819D01*
X145886501Y-104367152D02*
X145886501Y-103700485D01*
X146886501Y-104129057D01*
X149509741Y-106579847D02*
X149033550Y-106913181D01*
X149509741Y-107151276D02*
X148509741Y-107151276D01*
X148509741Y-106770323D01*
X148557360Y-106675085D01*
X148604979Y-106627466D01*
X148700217Y-106579847D01*
X148843074Y-106579847D01*
X148938312Y-106627466D01*
X148985931Y-106675085D01*
X149033550Y-106770323D01*
X149033550Y-107151276D01*
X149509741Y-105627466D02*
X149509741Y-106198895D01*
X149509741Y-105913181D02*
X148509741Y-105913181D01*
X148652598Y-106008419D01*
X148747836Y-106103657D01*
X148795455Y-106198895D01*
X148509741Y-105008419D02*
X148509741Y-104913180D01*
X148557360Y-104817942D01*
X148604979Y-104770323D01*
X148700217Y-104722704D01*
X148890693Y-104675085D01*
X149128789Y-104675085D01*
X149319265Y-104722704D01*
X149414503Y-104770323D01*
X149462122Y-104817942D01*
X149509741Y-104913180D01*
X149509741Y-105008419D01*
X149462122Y-105103657D01*
X149414503Y-105151276D01*
X149319265Y-105198895D01*
X149128789Y-105246514D01*
X148890693Y-105246514D01*
X148700217Y-105198895D01*
X148604979Y-105151276D01*
X148557360Y-105103657D01*
X148509741Y-105008419D01*
X148938312Y-104103657D02*
X148890693Y-104198895D01*
X148843074Y-104246514D01*
X148747836Y-104294133D01*
X148700217Y-104294133D01*
X148604979Y-104246514D01*
X148557360Y-104198895D01*
X148509741Y-104103657D01*
X148509741Y-103913180D01*
X148557360Y-103817942D01*
X148604979Y-103770323D01*
X148700217Y-103722704D01*
X148747836Y-103722704D01*
X148843074Y-103770323D01*
X148890693Y-103817942D01*
X148938312Y-103913180D01*
X148938312Y-104103657D01*
X148985931Y-104198895D01*
X149033550Y-104246514D01*
X149128789Y-104294133D01*
X149319265Y-104294133D01*
X149414503Y-104246514D01*
X149462122Y-104198895D01*
X149509741Y-104103657D01*
X149509741Y-103913180D01*
X149462122Y-103817942D01*
X149414503Y-103770323D01*
X149319265Y-103722704D01*
X149128789Y-103722704D01*
X149033550Y-103770323D01*
X148985931Y-103817942D01*
X148938312Y-103913180D01*
X151692181Y-106605247D02*
X151215990Y-106938581D01*
X151692181Y-107176676D02*
X150692181Y-107176676D01*
X150692181Y-106795723D01*
X150739800Y-106700485D01*
X150787419Y-106652866D01*
X150882657Y-106605247D01*
X151025514Y-106605247D01*
X151120752Y-106652866D01*
X151168371Y-106700485D01*
X151215990Y-106795723D01*
X151215990Y-107176676D01*
X151692181Y-105652866D02*
X151692181Y-106224295D01*
X151692181Y-105938581D02*
X150692181Y-105938581D01*
X150835038Y-106033819D01*
X150930276Y-106129057D01*
X150977895Y-106224295D01*
X150692181Y-105033819D02*
X150692181Y-104938580D01*
X150739800Y-104843342D01*
X150787419Y-104795723D01*
X150882657Y-104748104D01*
X151073133Y-104700485D01*
X151311229Y-104700485D01*
X151501705Y-104748104D01*
X151596943Y-104795723D01*
X151644562Y-104843342D01*
X151692181Y-104938580D01*
X151692181Y-105033819D01*
X151644562Y-105129057D01*
X151596943Y-105176676D01*
X151501705Y-105224295D01*
X151311229Y-105271914D01*
X151073133Y-105271914D01*
X150882657Y-105224295D01*
X150787419Y-105176676D01*
X150739800Y-105129057D01*
X150692181Y-105033819D01*
X151692181Y-104224295D02*
X151692181Y-104033819D01*
X151644562Y-103938580D01*
X151596943Y-103890961D01*
X151454086Y-103795723D01*
X151263610Y-103748104D01*
X150882657Y-103748104D01*
X150787419Y-103795723D01*
X150739800Y-103843342D01*
X150692181Y-103938580D01*
X150692181Y-104129057D01*
X150739800Y-104224295D01*
X150787419Y-104271914D01*
X150882657Y-104319533D01*
X151120752Y-104319533D01*
X151215990Y-104271914D01*
X151263610Y-104224295D01*
X151311229Y-104129057D01*
X151311229Y-103938580D01*
X151263610Y-103843342D01*
X151215990Y-103795723D01*
X151120752Y-103748104D01*
X168211714Y-107850381D02*
X168211714Y-108659905D01*
X168259333Y-108755143D01*
X168306952Y-108802762D01*
X168402190Y-108850381D01*
X168592667Y-108850381D01*
X168687905Y-108802762D01*
X168735524Y-108755143D01*
X168783143Y-108659905D01*
X168783143Y-107850381D01*
X169783143Y-108850381D02*
X169211714Y-108850381D01*
X169497428Y-108850381D02*
X169497428Y-107850381D01*
X169402190Y-107993238D01*
X169306952Y-108088476D01*
X169211714Y-108136095D01*
X170402190Y-107850381D02*
X170497429Y-107850381D01*
X170592667Y-107898000D01*
X170640286Y-107945619D01*
X170687905Y-108040857D01*
X170735524Y-108231333D01*
X170735524Y-108469429D01*
X170687905Y-108659905D01*
X170640286Y-108755143D01*
X170592667Y-108802762D01*
X170497429Y-108850381D01*
X170402190Y-108850381D01*
X170306952Y-108802762D01*
X170259333Y-108755143D01*
X170211714Y-108659905D01*
X170164095Y-108469429D01*
X170164095Y-108231333D01*
X170211714Y-108040857D01*
X170259333Y-107945619D01*
X170306952Y-107898000D01*
X170402190Y-107850381D01*
X171687905Y-108850381D02*
X171116476Y-108850381D01*
X171402190Y-108850381D02*
X171402190Y-107850381D01*
X171306952Y-107993238D01*
X171211714Y-108088476D01*
X171116476Y-108136095D01*
X166711524Y-118117881D02*
X166711524Y-117117881D01*
X167092477Y-117117881D01*
X167187715Y-117165500D01*
X167235334Y-117213119D01*
X167282953Y-117308357D01*
X167282953Y-117451214D01*
X167235334Y-117546452D01*
X167187715Y-117594071D01*
X167092477Y-117641690D01*
X166711524Y-117641690D01*
X168235334Y-118117881D02*
X167663905Y-118117881D01*
X167949619Y-118117881D02*
X167949619Y-117117881D01*
X167854381Y-117260738D01*
X167759143Y-117355976D01*
X167663905Y-117403595D01*
X168854381Y-117117881D02*
X168949620Y-117117881D01*
X169044858Y-117165500D01*
X169092477Y-117213119D01*
X169140096Y-117308357D01*
X169187715Y-117498833D01*
X169187715Y-117736929D01*
X169140096Y-117927405D01*
X169092477Y-118022643D01*
X169044858Y-118070262D01*
X168949620Y-118117881D01*
X168854381Y-118117881D01*
X168759143Y-118070262D01*
X168711524Y-118022643D01*
X168663905Y-117927405D01*
X168616286Y-117736929D01*
X168616286Y-117498833D01*
X168663905Y-117308357D01*
X168711524Y-117213119D01*
X168759143Y-117165500D01*
X168854381Y-117117881D01*
X170140096Y-118117881D02*
X169568667Y-118117881D01*
X169854381Y-118117881D02*
X169854381Y-117117881D01*
X169759143Y-117260738D01*
X169663905Y-117355976D01*
X169568667Y-117403595D01*
X158040001Y-98579714D02*
X157968572Y-98651143D01*
X157754286Y-98722571D01*
X157611429Y-98722571D01*
X157397144Y-98651143D01*
X157254286Y-98508286D01*
X157182858Y-98365429D01*
X157111429Y-98079714D01*
X157111429Y-97865429D01*
X157182858Y-97579714D01*
X157254286Y-97436857D01*
X157397144Y-97294000D01*
X157611429Y-97222571D01*
X157754286Y-97222571D01*
X157968572Y-97294000D01*
X158040001Y-97365429D01*
X158968572Y-97222571D02*
X159254286Y-97222571D01*
X159397144Y-97294000D01*
X159540001Y-97436857D01*
X159611429Y-97722571D01*
X159611429Y-98222571D01*
X159540001Y-98508286D01*
X159397144Y-98651143D01*
X159254286Y-98722571D01*
X158968572Y-98722571D01*
X158825715Y-98651143D01*
X158682858Y-98508286D01*
X158611429Y-98222571D01*
X158611429Y-97722571D01*
X158682858Y-97436857D01*
X158825715Y-97294000D01*
X158968572Y-97222571D01*
X160254287Y-98722571D02*
X160254287Y-97222571D01*
X161111430Y-98722571D01*
X161111430Y-97222571D01*
X162611430Y-98722571D02*
X161754287Y-98722571D01*
X162182859Y-98722571D02*
X162182859Y-97222571D01*
X162040002Y-97436857D01*
X161897144Y-97579714D01*
X161754287Y-97651143D01*
X163540001Y-97222571D02*
X163682858Y-97222571D01*
X163825715Y-97294000D01*
X163897144Y-97365429D01*
X163968573Y-97508286D01*
X164040001Y-97794000D01*
X164040001Y-98151143D01*
X163968573Y-98436857D01*
X163897144Y-98579714D01*
X163825715Y-98651143D01*
X163682858Y-98722571D01*
X163540001Y-98722571D01*
X163397144Y-98651143D01*
X163325715Y-98579714D01*
X163254287Y-98436857D01*
X163182858Y-98151143D01*
X163182858Y-97794000D01*
X163254287Y-97508286D01*
X163325715Y-97365429D01*
X163397144Y-97294000D01*
X163540001Y-97222571D01*
X165468572Y-98722571D02*
X164611429Y-98722571D01*
X165040001Y-98722571D02*
X165040001Y-97222571D01*
X164897144Y-97436857D01*
X164754286Y-97579714D01*
X164611429Y-97651143D01*
%LPC*%
D12*
X156724600Y-105628440D03*
X160724600Y-105628440D03*
X181730400Y-105257600D03*
X177730400Y-105257600D03*
D13*
X186723020Y-118364000D03*
X184624980Y-118364000D03*
X150017480Y-114998500D03*
X152115520Y-114998500D03*
X150017480Y-112141000D03*
X152115520Y-112141000D03*
D14*
X157306000Y-112141000D03*
X154606000Y-112141000D03*
X157369500Y-114935000D03*
X154669500Y-114935000D03*
D15*
X180975000Y-115617000D03*
X180975000Y-118317000D03*
X178562000Y-115642400D03*
X178562000Y-118342400D03*
D14*
X178007000Y-110998000D03*
X175307000Y-110998000D03*
X172182800Y-114808000D03*
X174882800Y-114808000D03*
D15*
X148534120Y-106836200D03*
X148534120Y-104136200D03*
X150962360Y-106770160D03*
X150962360Y-104070160D03*
X153339800Y-106836200D03*
X153339800Y-104136200D03*
D16*
X167726000Y-109998000D03*
X167726000Y-110498000D03*
X167726000Y-110998000D03*
X167726000Y-111498000D03*
X167726000Y-111998000D03*
X172126000Y-111998000D03*
X172126000Y-111498000D03*
X172126000Y-110998000D03*
X172126000Y-110498000D03*
X172126000Y-109998000D03*
D17*
X175006000Y-117703600D03*
D18*
X172466000Y-117703600D03*
D19*
X152568760Y-101318440D03*
X151918760Y-101318440D03*
X151268760Y-101318440D03*
X153218760Y-101318440D03*
X153868760Y-101318440D03*
D20*
X155768760Y-101093440D03*
X149368760Y-101093440D03*
D21*
X153768760Y-98643440D03*
X151368760Y-98643440D03*
D22*
X155868760Y-98643440D03*
X149268760Y-98643440D03*
D23*
X180594000Y-98806000D03*
D24*
X178594000Y-98806000D03*
M02*
