M48
;DRILL file {kicad 0.201503210816+5526~22~ubuntu14.10.1-product} date Sun 22 Mar 2015 03:55:36 PM EDT
;FORMAT={2:4/ absolute / inch / keep zeros}
FMAT,2
INCH,TZ
T1C0.013
T2C0.028
T3C0.040
T4C0.047
%
G90
G05
M72
T1
X057500Y-041000
X057500Y-041750
X057500Y-042500
X057500Y-043250
X058250Y-042750
X058500Y-043250
X059000Y-042750
X059500Y-043250
X060000Y-042750
X060500Y-043250
X060750Y-042750
X061250Y-040750
X061750Y-042500
X061750Y-043250
X062000Y-040750
X062750Y-042500
X062750Y-043250
X063000Y-045750
X063000Y-047250
X063250Y-038500
X063250Y-039250
X063250Y-040000
X063250Y-040750
X063500Y-046500
X063750Y-042500
X063750Y-043250
X064000Y-045750
X064250Y-038500
X064250Y-039250
X064250Y-040000
X064250Y-040750
X064250Y-041500
X064250Y-047250
X064750Y-042500
X064750Y-043250
X064750Y-046500
X065000Y-045000
X065250Y-038500
X065250Y-039250
X065250Y-040000
X065250Y-040750
X065250Y-041500
X065250Y-045750
X065500Y-047250
X065750Y-042500
X066000Y-045000
X066000Y-046500
X066250Y-038500
X066250Y-039250
X066250Y-040000
X066250Y-040750
X066250Y-041500
X066500Y-045750
X066750Y-047250
X067000Y-042000
X067000Y-042750
X067000Y-043500
X067000Y-044250
X067000Y-045000
X067000Y-046500
X067250Y-038500
X067250Y-039250
X067250Y-040000
X067250Y-040750
X067250Y-041500
X068250Y-038500
X068250Y-039250
X068250Y-040000
X068250Y-040750
X068250Y-041500
X068250Y-042500
X068250Y-047250
X068750Y-043000
X069250Y-038500
X069250Y-039250
X069250Y-040000
X069250Y-040750
X069250Y-041500
X069250Y-042500
X069250Y-044500
X069500Y-047250
X069750Y-043000
X069750Y-045250
X069750Y-046000
X070250Y-039750
X070250Y-040500
X070250Y-042500
X070302Y-044328
X071000Y-043000
X071250Y-042500
X071500Y-040250
X071750Y-043250
X072250Y-038750
X072250Y-039500
X072250Y-041000
X072250Y-042500
X072500Y-040250
X072500Y-041750
X072750Y-043250
X073000Y-038750
X073000Y-039500
X073000Y-041000
X073250Y-042500
X073500Y-040250
X073500Y-041750
X074000Y-038750
X074000Y-039500
X074000Y-041000
X074000Y-043250
X074250Y-041750
X074250Y-042500
T2
X070313Y-038900
X071100Y-038900
T3
X067900Y-046340
X068900Y-046340
T4
X058767Y-038836
X061366Y-038836
T0
M30
